<svg width="21" height="21" viewBox="0 0 21 21" fill="none" xmlns="http://www.w3.org/2000/svg">
<path d="M4.59375 9.84375H17.7188C17.8928 9.84375 18.0597 9.91289 18.1828 10.036C18.3059 10.159 18.375 10.326 18.375 10.5C18.375 10.674 18.3059 10.841 18.1828 10.964C18.0597 11.0871 17.8928 11.1562 17.7188 11.1562H4.59375C4.4197 11.1562 4.25278 11.0871 4.12971 10.964C4.00664 10.841 3.9375 10.674 3.9375 10.5C3.9375 10.326 4.00664 10.159 4.12971 10.036C4.25278 9.91289 4.4197 9.84375 4.59375 9.84375Z" fill="white"/>
<path d="M4.86539 10.5001L10.3083 15.9417C10.4316 16.0649 10.5008 16.2321 10.5008 16.4063C10.5008 16.5806 10.4316 16.7477 10.3083 16.871C10.1851 16.9942 10.018 17.0634 9.8437 17.0634C9.66943 17.0634 9.5023 16.9942 9.37908 16.871L3.47283 10.9647C3.41171 10.9038 3.36323 10.8313 3.33014 10.7516C3.29706 10.6719 3.28003 10.5864 3.28003 10.5001C3.28003 10.4138 3.29706 10.3283 3.33014 10.2486C3.36323 10.1688 3.41171 10.0964 3.47283 10.0355L9.37908 4.12922C9.5023 4.006 9.66943 3.93677 9.8437 3.93677C10.018 3.93677 10.1851 4.006 10.3083 4.12922C10.4316 4.25245 10.5008 4.41958 10.5008 4.59385C10.5008 4.76811 10.4316 4.93525 10.3083 5.05847L4.86539 10.5001Z" fill="white"/>
</svg>
