<svg width="20" height="19" viewBox="0 0 20 19" fill="none" xmlns="http://www.w3.org/2000/svg">
<g clip-path="url(#clip0_1_7)">
<path d="M17 3.65137H3C1.34389 3.65318 0.00181001 4.99526 6.80839e-09 6.65137V8.65137C-4.99932e-05 9.08177 0.2753 9.46392 0.68359 9.6001L6.68359 11.6001C6.78561 11.6341 6.89246 11.6514 7 11.6514H13C13.1075 11.6514 13.2144 11.6341 13.3164 11.6001L19.3164 9.6001C19.7247 9.46392 20 9.08177 20 8.65137V6.65137C19.9982 4.99526 18.6561 3.65318 17 3.65137Z" fill="white"/>
<path d="M19.3164 9.6001L13.3164 11.6001C13.2144 11.6341 13.1075 11.6514 13 11.6514H7C6.89246 11.6514 6.78558 11.6341 6.68359 11.6001L0.68359 9.6001C0.27533 9.46393 -5.99902e-05 9.08179 9.80233e-09 8.65137V15.6514C9.80233e-09 17.3082 1.34314 18.6514 3 18.6514H17C18.6569 18.6514 20 17.3082 20 15.6514V8.65137C20.0001 9.08179 19.7247 9.46393 19.3164 9.6001Z" fill="url(#paint0_linear_1_7)"/>
<path d="M7.99951 3.65137L7.99854 2.65137H12V3.65137H14V2.65137C14 1.54834 13.1025 0.651367 12 0.651367H8C6.89697 0.651367 6 1.54834 6 2.65137V3.65137H7.99951Z" fill="white"/>
</g>
<defs>
<linearGradient id="paint0_linear_1_7" x1="10.139" y1="1.05771" x2="10" y2="20.1514" gradientUnits="userSpaceOnUse">
<stop stop-color="#CBACFF"/>
<stop offset="1" stop-color="white"/>
</linearGradient>
<clipPath id="clip0_1_7">
<rect width="20" height="19" fill="white"/>
</clipPath>
</defs>
</svg>
