<svg xmlns="http://www.w3.org/2000/svg" width="36" height="35" fill="none" xmlns:v="https://vecta.io/nano"><path d="M2.946 1.675c-.782 0-1.416.634-1.416 1.416v24.553c0 .782.634 1.416 1.416 1.416h1.971v2.689a1.42 1.42 0 0 0 2.324 1.087l4.523-3.777h11.158c.782 0 1.416-.634 1.416-1.416V3.091c0-.782-.634-1.416-1.416-1.416H2.946z" stroke="#fff" stroke-width="2"/><g stroke="#231a50"><path d="M2.53 3.091c0-.23.186-.416.416-.416h19.976c.23 0 .416.186.416.416v24.553c0 .23-.186.416-.416.416h-11.37c-.098 0-.192.034-.267.097L6.6 32.069c-.271.226-.683.034-.683-.319v-3.273c0-.23-.186-.416-.416-.416H2.946c-.23 0-.416-.186-.416-.416V3.091z" fill="#e0cdff"/><path d="M5.859 6.004h14.15M5.859 9.541h14.15m-14.15 3.537h14.15m-14.15 3.538h14.15m-14.15 3.537h14.15M5.859 23.69h14.15" stroke-linecap="round"/><path d="M30.185 5.841c1.057-1.057 2.77-1.057 3.827 0s1.057 2.769.001 3.826L20.084 23.613c-.079.079-.187.123-.299.122l-3.215-.037c-.228-.003-.412-.188-.412-.417l.005-3.247c0-.11.044-.216.122-.294l13.9-13.9z" fill="#fff"/><path d="M30.183 5.843a2.71 2.71 0 0 1 3.831 0 2.71 2.71 0 0 1 .005 3.826l-1.641 1.65c-.039.04-.104.04-.143 0l-3.684-3.702a.1.1 0 0 1 0-.142l1.632-1.632z" fill="#cbacff"/><path d="M30.182 5.845a2.71 2.71 0 0 1 3.843 3.826l-.26.263c-.024.024-.063.024-.087 0l-3.743-3.754c-.024-.024-.024-.063 0-.087l.248-.248z" fill="#fff"/></g></svg>