<svg width="48" height="40" viewBox="0 0 48 40" fill="none" xmlns="http://www.w3.org/2000/svg">
<path d="M3.75 3C3.55109 3 3.36032 3.06527 3.21967 3.18136C3.07902 3.29746 3 3.45487 3 3.61905V37.0476C3 37.2118 3.07902 37.3693 3.21967 37.4854C3.36032 37.6015 3.55109 37.6667 3.75 37.6667H44.25C44.4489 37.6667 44.6397 37.6015 44.7803 37.4854C44.921 37.3693 45 37.2118 45 37.0476V3.61905C45 3.45487 44.921 3.29746 44.7803 3.18136C44.6397 3.06527 44.4489 3 44.25 3H3.75ZM4.5 4.2381H43.5V36.4286H4.5V4.2381Z" fill="white"/>
<path fill-rule="evenodd" clip-rule="evenodd" d="M3.75 9V10.5H44.25V9H3.75Z" fill="white"/>
<path d="M7.5 6.75C7.5 6.94891 7.42098 7.13971 7.28033 7.28036C7.13968 7.42102 6.94891 7.5 6.75 7.5C6.55109 7.5 6.36032 7.42102 6.21967 7.28036C6.07902 7.13971 6 6.94891 6 6.75C6 6.55109 6.07902 6.36038 6.21967 6.21973C6.36032 6.07907 6.55109 6 6.75 6C6.94891 6 7.13968 6.07907 7.28033 6.21973C7.42098 6.36038 7.5 6.55109 7.5 6.75ZM10.5 6.75C10.5 6.94891 10.421 7.13971 10.2803 7.28036C10.1397 7.42102 9.94891 7.5 9.75 7.5C9.55109 7.5 9.36032 7.42102 9.21967 7.28036C9.07902 7.13971 9 6.94891 9 6.75C9 6.55109 9.07902 6.36038 9.21967 6.21973C9.36032 6.07907 9.55109 6 9.75 6C9.94891 6 10.1397 6.07907 10.2803 6.21973C10.421 6.36038 10.5 6.55109 10.5 6.75ZM13.5 6.75C13.5 6.94891 13.421 7.13971 13.2803 7.28036C13.1397 7.42102 12.9489 7.5 12.75 7.5C12.5511 7.5 12.3603 7.42102 12.2197 7.28036C12.079 7.13971 12 6.94891 12 6.75C12 6.55109 12.079 6.36038 12.2197 6.21973C12.3603 6.07907 12.5511 6 12.75 6C12.9489 6 13.1397 6.07907 13.2803 6.21973C13.421 6.36038 13.5 6.55109 13.5 6.75Z" fill="white"/>
<path d="M8.25 13.5C8.05109 13.5 7.86032 13.5791 7.71967 13.7197C7.57902 13.8604 7.5 14.0511 7.5 14.25V24.75C7.5 24.9489 7.57902 25.1397 7.71967 25.2804C7.86032 25.421 8.05109 25.5 8.25 25.5H18.75C18.9489 25.5 19.1397 25.421 19.2803 25.2804C19.421 25.1397 19.5 24.9489 19.5 24.75V14.25C19.5 14.0511 19.421 13.8604 19.2803 13.7197C19.1397 13.5791 18.9489 13.5 18.75 13.5H8.25ZM9 15H18V24H9V15Z" fill="white"/>
<path fill-rule="evenodd" clip-rule="evenodd" d="M7.5 27V28.5H18V27H7.5ZM7.5 30V31.5H13.5V30H7.5ZM21 13.5V15H28.5V13.5H21ZM21 16.5V18H40.5V16.5H21ZM21 19.5V21H37.5V19.5H21ZM21 22.5V24H37.5V22.5H21ZM21 25.5V27H37.5V25.5H21ZM21 28.5V30H27V28.5H21Z" fill="white"/>
</svg>
