<svg width="32" height="32" viewBox="0 0 32 32" fill="none" xmlns="http://www.w3.org/2000/svg">
<path d="M22.4383 21.5561C24.1869 19.5998 25.1527 17.0674 25.1508 14.4436C25.1508 8.5373 20.3445 3.7373 14.4445 3.7373C8.53828 3.7373 3.73828 8.54355 3.73828 14.4436C3.73828 20.3436 8.54453 25.1498 14.4445 25.1498C17.0684 25.1517 19.6008 24.1859 21.557 22.4373L27.2008 28.0811C27.2588 28.1395 27.328 28.1857 27.4042 28.2168C27.4805 28.2479 27.5622 28.2634 27.6445 28.2623C27.8103 28.2616 27.9694 28.1967 28.0883 28.0811C28.1462 28.0232 28.1922 27.9546 28.2236 27.879C28.2549 27.8033 28.2711 27.7223 28.2711 27.6404C28.2711 27.5586 28.2549 27.4775 28.2236 27.4019C28.1922 27.3263 28.1462 27.2576 28.0883 27.1998L22.4383 21.5561ZM4.98203 14.4436C4.98203 9.23105 9.22578 4.9873 14.4383 4.9873C19.6508 4.9873 23.8945 9.23105 23.8945 14.4436C23.8945 19.6561 19.6508 23.8998 14.4383 23.8998C9.22578 23.8998 4.98203 19.6561 4.98203 14.4436Z" fill="white"/>
</svg>
