<svg xmlns="http://www.w3.org/2000/svg" width="73" height="65" fill="none" xmlns:v="https://vecta.io/nano"><path d="M3.5 22.679a4.03 4.03 0 0 1 4.03-4.03h47.597a4.03 4.03 0 0 1 4.03 4.03v29.475a4.03 4.03 0 0 1-4.03 4.03H14.246A10.75 10.75 0 0 1 3.5 45.438V22.679z" fill="#fff"/><g fill-rule="evenodd"><path d="M55.127 19.993H7.53c-1.484 0-2.686 1.203-2.686 2.687v22.759c0 5.193 4.21 9.403 9.403 9.403h40.881c1.484 0 2.687-1.203 2.687-2.687V22.679c0-1.484-1.203-2.687-2.687-2.687zM7.53 18.649a4.03 4.03 0 0 0-4.03 4.03v22.759a10.75 10.75 0 0 0 10.746 10.746h40.881a4.03 4.03 0 0 0 4.03-4.03V22.679a4.03 4.03 0 0 0-4.03-4.03H7.53z" fill="#231a50"/><path d="M12.902 6.789c-5.193 0-9.403 4.663-9.403 10.416l-.015 28.522c5.221-2.847 5.093-3.635 9.577-3.635 2.507 0 4.462.648 6.557 2.174V9.765c0-1.644-1.203-2.976-2.687-2.976h-4.03z" fill="#f5eeff"/><path d="M12.902 8.277c-4.451 0-8.059 3.997-8.059 8.928v26.606c2.103-2.01 5.052-3.207 8.219-3.207 1.868 0 3.643.412 5.213 1.153V9.765c0-.822-.601-1.488-1.343-1.488h-4.03zm6.716 1.488c0-1.644-1.203-2.976-2.687-2.976h-4.03c-5.193 0-9.403 4.663-9.403 10.416l-.015 28.522c.814-.444.781.914 1.358.18 1.813-2.306 4.818-3.814 8.219-3.814 2.357 0 4.608.697 6.557 2.174V9.765z" fill="#231a50"/></g><circle cx="56.084" cy="50.267" r="12.424" fill="#cbacff" stroke="#231a50" stroke-width="1.343"/><g fill-rule="evenodd"><path d="M52.179 44.153c-.486-.201-1.004.209-.92.728l2.073 12.828c.102.629.94.776 1.25.22l2.928-5.261c.174-.312.464-.542.808-.639l5.794-1.64c.613-.174.663-1.023.074-1.267l-12.007-4.968z" fill="#fff"/><path d="M52.595 45.623l1.679 10.391 2.188-3.931c.329-.591.879-1.026 1.53-1.21l4.329-1.225-9.726-4.024zm-1.336-.743c-.084-.519.434-.929.92-.728l12.007 4.968c.589.244.539 1.093-.074 1.267l-5.794 1.64c-.343.097-.634.327-.808.639l-2.928 5.261c-.31.557-1.148.409-1.25-.22L51.259 44.88z" fill="#231a50"/></g><path d="M41.127 19.796a5.22 5.22 0 0 1-5.219 5.219 5.22 5.22 0 0 1-5.219-5.219 5.22 5.22 0 0 1 5.219-5.219 5.22 5.22 0 0 1 5.219 5.219z" fill="#f5eeff"/><path d="M34.938 11.598a8.38 8.38 0 0 0-4.83 2.12c-1.34 1.208-2.254 2.816-2.606 4.586a7.87 7.87 0 0 0 1.029 5.453l.558.929c1.202 1.979 2.601 3.831 4.177 5.528l1.81 1.971c.167.271.463.436.781.436s.614-.165.781-.436l1.81-1.958a34.99 34.99 0 0 0 4.177-5.552l.446-.744c.813-1.264 1.244-2.736 1.239-4.239-.056-2.358-1.106-4.582-2.891-6.124s-4.138-2.257-6.479-1.969zm.954 11.154c-.796-.029-1.548-.371-2.093-.952s-.839-1.352-.819-2.148.354-1.552.928-2.103 1.343-.854 2.139-.843 1.555.337 2.113.905.869 1.333.867 2.129c-.016.815-.356 1.591-.944 2.155s-1.376.873-2.192.856z" fill="#fff"/><path d="M34.865 10.931c2.526-.308 5.064.466 6.99 2.129a9.03 9.03 0 0 1 3.123 6.616v.014a8.47 8.47 0 0 1-1.341 4.595l-.441.735-.002.003a35.67 35.67 0 0 1-4.257 5.659l-.001.001-1.771 1.917a1.59 1.59 0 0 1-2.625-.001l-1.769-1.927-.001-.002a34.9 34.9 0 0 1-4.257-5.635l-.002-.003-.556-.926-.001-.002a8.54 8.54 0 0 1-1.115-5.917l.001-.007.002-.008a9.05 9.05 0 0 1 8.023-7.242zm6.112 3.146a7.68 7.68 0 0 0-5.958-1.811l-.01.001-.01.001c-1.652.155-3.211.838-4.443 1.95s-2.071 2.586-2.396 4.211a7.2 7.2 0 0 0 .942 4.98l.002.004.556.926.001.002a33.59 33.59 0 0 0 4.094 5.418l.003.003 1.853 2.018.034.055c.044.072.123.116.209.116s.164-.044.209-.117l.034-.056 1.853-2.005a34.31 34.31 0 0 0 4.096-5.444l.001-.002.45-.75.006-.009c.742-1.153 1.135-2.496 1.133-3.867a7.68 7.68 0 0 0-2.658-5.624zm-4.94 3.303a2.35 2.35 0 0 0-2.386 2.291 2.35 2.35 0 0 0 2.259 2.411 2.4 2.4 0 0 0 1.707-.669c.458-.44.724-1.044.738-1.679a2.35 2.35 0 0 0-2.318-2.355zm-2.594-.313c.702-.674 1.641-1.044 2.614-1.03s1.901.411 2.583 1.105 1.062 1.629 1.059 2.602v.011a3.75 3.75 0 0 1-1.15 2.626 3.74 3.74 0 0 1-2.671 1.043h-.011c-.972-.036-1.891-.454-2.557-1.163s-1.026-1.652-1.001-2.625m1.134-2.571c-.702.674-1.109 1.598-1.134 2.571l1.134-2.571zm-.07 23.586a.69.69 0 0 0 .002.974.69.69 0 0 0 .974-.002l1.763-1.769 1.76 1.808a.69.69 0 0 0 .974.013.69.69 0 0 0 .013-.974l-1.774-1.823 1.826-1.833a.69.69 0 0 0-.002-.974.69.69 0 0 0-.974.002l-1.811 1.818-1.751-1.799a.69.69 0 0 0-.974-.013.69.69 0 0 0-.013.974l1.766 1.815-1.778 1.784z" fill-rule="evenodd" fill="#231a50"/></svg>