<svg width="18" height="19" viewBox="0 0 18 19" fill="none" xmlns="http://www.w3.org/2000/svg">
<path fill-rule="evenodd" clip-rule="evenodd" d="M1 0.651367H7C7.5523 0.651367 8 1.09908 8 1.65137V7.6514C8 8.2037 7.5523 8.6514 7 8.6514H1C0.44772 8.6514 0 8.2037 0 7.6514V1.65137C0 1.09908 0.44772 0.651367 1 0.651367ZM1 10.6514H7C7.5523 10.6514 8 11.0991 8 11.6514V17.6514C8 18.2037 7.5523 18.6514 7 18.6514H1C0.44772 18.6514 0 18.2037 0 17.6514V11.6514C0 11.0991 0.44772 10.6514 1 10.6514ZM18 17.6514V11.6514C18 11.0991 17.5523 10.6514 17 10.6514H11C10.4477 10.6514 10 11.0991 10 11.6514V17.6514C10 18.2037 10.4477 18.6514 11 18.6514H17C17.5523 18.6514 18 18.2037 18 17.6514ZM15 3.65137H17C17.2652 3.65137 17.5196 3.75672 17.7071 3.94426C17.8946 4.1318 18 4.3862 18 4.6514C18 4.9166 17.8946 5.1709 17.7071 5.3585C17.5196 5.546 17.2652 5.6514 17 5.6514H15V7.6514C15 7.9166 14.8946 8.1709 14.7071 8.3585C14.5196 8.546 14.2652 8.6514 14 8.6514C13.7348 8.6514 13.4804 8.546 13.2929 8.3585C13.1054 8.1709 13 7.9166 13 7.6514V5.6514H11C10.7348 5.6514 10.4804 5.546 10.2929 5.3585C10.1054 5.1709 10 4.9166 10 4.6514C10 4.3862 10.1054 4.1318 10.2929 3.94426C10.4804 3.75672 10.7348 3.65137 11 3.65137H13V1.65137C13 1.38615 13.1054 1.1318 13.2929 0.944257C13.4804 0.756717 13.7348 0.651367 14 0.651367C14.2652 0.651367 14.5196 0.756717 14.7071 0.944257C14.8946 1.1318 15 1.38615 15 1.65137V3.65137Z" fill="url(#paint0_linear_10_171)"/>
<defs>
<linearGradient id="paint0_linear_10_171" x1="9" y1="0.651367" x2="8.2978" y2="27.5893" gradientUnits="userSpaceOnUse">
<stop stop-color="white"/>
<stop offset="1" stop-color="#CBACFF"/>
</linearGradient>
</defs>
</svg>
