<svg xmlns="http://www.w3.org/2000/svg" width="38" height="32" fill="none" xmlns:v="https://vecta.io/nano"><mask id="A" maskUnits="userSpaceOnUse" x=".244" y="2.118" width="38" height="29" fill="#000"><path fill="#fff" d="M.244 2.118h38v29h-38z"/><path fill-rule="evenodd" d="M20.601 6.359a18.99 18.99 0 0 1 11.47-.646l3.125.801c.329.084.56.381.56.721v20.79c0 .47-.43.822-.891.73l-4.095-.819a18.24 18.24 0 0 0-7.156 0l-4.245.849c-.13.026-.257.009-.368-.039-.111.049-.238.065-.369.039l-4.245-.849c-2.362-.472-4.794-.472-7.156 0l-4.095.819c-.461.092-.891-.26-.891-.73V7.236c0-.34.23-.637.56-.721l3.125-.801a18.99 18.99 0 0 1 11.47.646l1.574.599.027.011.027-.011 1.574-.599z"/></mask><path d="M32.071 5.713l.497-1.937-.497 1.937zm-11.47.646L19.89 4.49h0l.711 1.869zm14.595.155l.497-1.937h0l-.497 1.937zm-.331 22.241l-.392 1.961h0l.392-1.961zm-4.095-.819l.392-1.961h0l-.392 1.961zm-7.156 0l.392 1.961h0l-.392-1.961zm-4.245.849l-.392-1.961h0l.392 1.961zM19 28.746l.8-1.833-.8-.349-.8.35.801 1.833zm-.369.039l.392-1.961h0l-.392 1.961zm-4.245-.849l-.392 1.961h0l.392-1.961zm-7.156 0l-.392-1.961h0l.392 1.961zm-4.095.819l.392 1.961h0l-.392-1.961zM2.804 6.514l.497 1.937h0l-.497-1.937zm3.125-.801l.497 1.937h0l-.497-1.937zm11.47.646l.711-1.869h0l-.711 1.869zm1.574.599l-.711 1.869h0l.711-1.869zM19 6.97l-.796 1.835.797.346.797-.346L19 6.97zm.027-.011l-.711-1.869h0l.711 1.869zm13.541-3.183a20.99 20.99 0 0 0-12.678.714l1.422 3.739a16.99 16.99 0 0 1 10.262-.578l.993-3.875zm3.125.801l-3.125-.801-.993 3.875 3.125.801.994-3.875zm2.063 2.659c0-1.253-.849-2.347-2.063-2.659l-.994 3.875c-.555-.142-.944-.643-.944-1.216h4zm0 20.79V7.236h-4v20.79h4zm-3.283 2.691c1.698.34 3.283-.959 3.283-2.691h-4c0-.792.725-1.386 1.501-1.231l-.784 3.922zm-4.095-.819l4.095.819.784-3.922-4.095-.819-.784 3.922zm-6.372 0c2.103-.421 4.269-.421 6.372 0l.784-3.922c-2.621-.524-5.32-.524-7.941 0l.785 3.922zm-4.245.849l4.245-.849-.785-3.922-4.245.849.784 3.922zm-1.56-.167c.474.207 1.016.276 1.56.167l-.785-3.922c.284-.057.573-.021.824.089l-1.599 3.666zm-.001-3.666c.252-.11.54-.146.825-.089l-.784 3.922c.545.109 1.088.04 1.562-.168l-1.602-3.665zm.825-.089l-4.245-.849-.785 3.922 4.245.849.784-3.922zm-4.245-.849c-2.621-.524-5.32-.524-7.941 0l.784 3.922c2.103-.421 4.269-.421 6.372 0l.785-3.922zm-7.941 0l-4.095.819.784 3.922 4.095-.819-.784-3.922zm-4.095.819c.777-.155 1.501.439 1.501 1.231h-4c0 1.732 1.585 3.031 3.283 2.691l-.784-3.922zm1.501 1.231V7.236h-4v20.789h4zm0-20.789c0 .573-.388 1.074-.944 1.216l-.993-3.875C1.093 4.888.244 5.983.244 7.236h4zm-.944 1.216l3.125-.801-.993-3.875-3.125.801.994 3.875zm3.125-.801a16.99 16.99 0 0 1 10.262.578L18.11 4.49a20.99 20.99 0 0 0-12.678-.714l.994 3.875zm10.262.578l1.574.599 1.422-3.738-1.574-.599-1.422 3.738zm1.574.599a1.41 1.41 0 0 1-.059-.024l1.593-3.669-.111-.045-1.422 3.739zm.053-3.739l-.113.046 1.595 3.668a1.39 1.39 0 0 1-.059.024l-1.423-3.738zm1.575-.599l-1.574.599 1.422 3.738 1.574-.599L19.89 4.49z" fill="#fff" mask="url(#A)"/><g fill="#cbacff" stroke="#231a50"><path d="M35.384 7.386c0-.259-.175-.484-.426-.548l-1.393-.357c-4.756-1.219-9.773-.937-14.362.809-.122.047-.203.164-.203.295v20.411c0 .25.229.438.474.389l1.849-.37a29.92 29.92 0 0 1 11.736 0l1.608.322a.6.6 0 0 0 .716-.587V7.386z"/><path d="M2.617 7.386c0-.259.175-.484.426-.548l1.393-.357c4.756-1.219 9.773-.937 14.362.809.122.047.203.164.203.295v20.411c0 .25-.229.438-.474.389l-1.849-.37a29.92 29.92 0 0 0-11.736 0l-1.608.322a.6.6 0 0 1-.716-.587V7.386z"/></g><g fill="#fff"><path d="M32.107 4.274c0-.21-.16-.385-.369-.404l-.946-.086a17.67 17.67 0 0 0-11.691 3.092c-.063.044-.101.116-.101.192v19.418c0 .149.168.235.289.149a13.8 13.8 0 0 1 12.261-1.85l.185.061c.183.06.372-.077.372-.27V4.274z" stroke="#231a50"/><path d="M5.893 4.274c0-.21.16-.385.369-.404l.946-.086a17.67 17.67 0 0 1 11.691 3.092c.063.044.101.116.101.192v19.418c0 .149-.168.235-.289.149a13.8 13.8 0 0 0-12.261-1.85l-.185.061c-.183.06-.372-.077-.372-.27V4.274z" stroke="#231a50"/></g><g filter="url(#B)"><circle cx="19.11" cy="14.847" r="4.819" fill="#fff"/><circle cx="19.11" cy="14.847" r="4.819" stroke="#231a50"/></g><path d="M17.905 13.862a.6.6 0 0 1 .892-.522l1.393.784a.6.6 0 0 1 0 1.043l-1.393.784a.6.6 0 0 1-.892-.522v-1.568z" fill="#231a50" stroke="#231a50" stroke-width="1.197"/><defs><filter id="B" x="11.397" y="7.733" width="15.425" height="15.425" filterUnits="userSpaceOnUse" color-interpolation-filters="sRGB"><feFlood flood-opacity="0" result="A"/><feColorMatrix in="SourceAlpha" values="0 0 0 0 0 0 0 0 0 0 0 0 0 0 0 0 0 0 127 0" result="B"/><feOffset dy="0.598423"/><feGaussianBlur stdDeviation="1.197"/><feComposite in2="B" operator="out"/><feColorMatrix values="0 0 0 0 0.54902 0 0 0 0 0.352941 0 0 0 0 1 0 0 0 0.24 0"/><feBlend in2="A"/><feBlend in="SourceGraphic"/></filter></defs></svg>