<svg width="42" height="42" viewBox="0 0 42 42" fill="none" xmlns="http://www.w3.org/2000/svg">
<g clip-path="url(#clip0_2118_838)">
<path d="M31.8795 21.5884C31.6883 21.5884 31.5049 21.719 31.3697 21.9515C31.2345 22.1841 31.1585 22.4994 31.1585 22.8282V33.1372C31.1599 33.3792 31.1269 33.6181 31.0624 33.8332C30.6567 35.1639 28.7339 39.51 21.0429 39.51C13.352 39.51 11.4292 35.1689 11.0187 33.8365C10.9544 33.6219 10.9214 33.3836 10.9226 33.1422V23.3539C10.9226 23.0251 10.8466 22.7097 10.7114 22.4772C10.5762 22.2447 10.3928 22.1141 10.2015 22.1141C10.0103 22.1141 9.82691 22.2447 9.69169 22.4772C9.55647 22.7097 9.4805 23.0251 9.4805 23.3539V33.1372C9.47849 33.7805 9.56688 34.4151 9.73815 34.9871C10.3861 37.0915 12.7751 41.9897 21.0429 41.9897C29.3108 41.9897 31.6988 37.0965 32.342 34.9937C32.5146 34.4219 32.6037 33.7864 32.6015 33.1422V22.8282C32.6015 22.6653 32.5828 22.5039 32.5466 22.3534C32.5103 22.2029 32.4571 22.0661 32.39 21.9509C32.323 21.8358 32.2434 21.7445 32.1558 21.6823C32.0682 21.6201 31.9743 21.5882 31.8795 21.5884Z" fill="white"/>
<path d="M41.5065 10.9753L22.4309 0.0182955C22.2853 -0.0659943 22.1276 -0.0659943 21.982 0.0182955L0.494326 11.8647C0.350849 11.9459 0.225795 12.1024 0.136771 12.3122C0.0477471 12.5221 -0.000763953 12.7746 -0.00193154 13.0344C-0.00309913 13.2941 0.0431356 13.5479 0.130263 13.7601C0.21739 13.9722 0.341021 14.1321 0.483751 14.2171L20.5765 25.8948C20.6508 25.9381 20.7287 25.9604 20.8072 25.961C20.8898 25.9607 20.9717 25.9361 21.0495 25.8882L35.7979 16.8323V22.7836C35.3007 23.0418 34.8649 23.5676 34.5546 24.2836C34.2443 24.9996 34.0759 25.8681 34.0741 26.7611V29.2606C34.0741 30.369 34.3302 31.432 34.786 32.2157C35.2418 32.9995 35.8599 33.4398 36.5045 33.4398C37.1491 33.4398 37.7672 32.9995 38.223 32.2157C38.6788 31.432 38.9348 30.369 38.9348 29.2606V26.7578C38.9335 25.8729 38.7686 25.0116 38.4639 24.2984C38.1593 23.5852 37.7306 23.0571 37.2399 22.7903V15.9463L41.519 13.3194C41.6604 13.2327 41.7825 13.0724 41.8683 12.8607C41.9541 12.649 41.9994 12.3966 41.9978 12.1385C41.9962 11.8805 41.9478 11.6297 41.8594 11.4212C41.771 11.2127 41.647 11.0568 41.5046 10.9753H41.5065ZM37.4889 29.2606C37.4889 29.7113 37.3848 30.1436 37.1995 30.4623C37.0141 30.781 36.7628 30.9601 36.5006 30.9601C36.2385 30.9601 35.9872 30.781 35.8018 30.4623C35.6165 30.1436 35.5124 29.7113 35.5124 29.2606V26.7578C35.5124 26.5346 35.5379 26.3136 35.5876 26.1074C35.6373 25.9013 35.71 25.7139 35.8018 25.5561C35.8936 25.3983 36.0025 25.2731 36.1224 25.1877C36.2423 25.1023 36.3709 25.0584 36.5006 25.0584C36.6304 25.0584 36.7589 25.1023 36.8788 25.1877C36.9988 25.2731 37.1077 25.3983 37.1995 25.5561C37.2912 25.7139 37.364 25.9013 37.4137 26.1074C37.4634 26.3136 37.4889 26.5346 37.4889 26.7578V29.2606ZM36.416 13.8203L21.1177 10.9819C21.0224 10.9603 20.9255 10.9717 20.8328 11.0154C20.74 11.0591 20.6533 11.1343 20.5777 11.2365C20.5021 11.3387 20.4392 11.4659 20.3926 11.6105C20.3461 11.7552 20.3168 11.9144 20.3065 12.0788C20.2963 12.2432 20.3052 12.4095 20.3329 12.5678C20.3606 12.7262 20.4064 12.8734 20.4676 13.0009C20.5289 13.1284 20.6043 13.2335 20.6896 13.31C20.7748 13.3866 20.8681 13.4331 20.9639 13.4467L33.2974 15.7347L20.7995 23.4118L3.01985 13.0764L22.1973 2.49635L39.0704 12.1887L36.416 13.8203Z" fill="white"/>
</g>
<defs>
<clipPath id="clip0_2118_838">
<rect width="42" height="42" fill="white"/>
</clipPath>
</defs>
</svg>
