<svg width="33" height="33" viewBox="0 0 33 33" fill="none" xmlns="http://www.w3.org/2000/svg">
<g clip-path="url(#clip0_2118_893)">
<path d="M29.1596 1.19723L29.1631 1.18924L29.1663 1.18111C29.3368 0.742616 29.8016 0.492836 30.2763 0.592768C30.754 0.693338 31.0706 1.0876 31.0717 1.55548C30.9675 9.62752 27.4554 15.6305 22.4789 16.7852C20.1266 17.3074 18.2937 16.7086 16.6058 16.1572C16.5822 16.1495 16.5587 16.1418 16.5351 16.1341L16.5323 16.1332C16.4743 16.1148 16.4166 16.0964 16.3589 16.0779C14.9085 15.615 13.5242 15.1731 11.8007 15.5678C8.85345 16.2313 7.00489 18.7543 6.37024 19.7416L6.27979 19.8823L6.31642 20.0455L8.68162 30.5846L8.68186 30.5856C8.80759 31.1389 8.48618 31.6523 7.93979 31.7765L7.92061 31.7809L7.90195 31.7871C7.86865 31.7982 7.82877 31.8014 7.7154 31.8014C7.25975 31.8014 6.84674 31.4987 6.75031 31.0407L6.75035 31.0407L6.74909 31.0351L2.67973 12.9837L2.67956 12.983L1.28854 6.75806C1.28852 6.758 1.28851 6.75794 1.2885 6.75788C1.23706 6.52622 1.26583 6.27329 1.36018 6.08458C1.45692 5.8911 3.64141 1.7049 8.2759 0.838008L8.2759 0.838011L8.27758 0.837689C11.3425 0.250792 13.7355 1.99122 16.0539 3.67733L16.0695 3.68869L16.1107 3.71937C16.9773 4.36519 17.8481 5.01402 18.7289 5.49204C19.6278 5.97989 20.5706 6.30922 21.5741 6.27062L21.5763 6.27053C23.2903 6.19519 25.0875 5.1357 26.4681 4.04085C27.167 3.48661 27.7775 2.90865 28.2398 2.41112C28.4709 2.16239 28.6674 1.93112 28.8205 1.73056C28.9688 1.53634 29.092 1.35083 29.1596 1.19723ZM22.0273 14.8529L22.0273 14.8529L22.0319 14.8518C23.8814 14.4221 25.3325 13.1841 26.4141 11.548C27.4947 9.91369 28.223 7.85999 28.6298 5.73751L28.8368 4.65747L27.9843 5.35213C26.1311 6.86215 23.8143 8.15475 21.6118 8.25386C19.0272 8.35145 16.844 6.78236 14.8405 5.3061C13.8209 4.54575 12.8341 3.81725 11.8332 3.33263C10.8216 2.84288 9.76865 2.58811 8.61717 2.79921L8.61717 2.79921L8.61469 2.79968C5.69941 3.35322 3.98589 5.63069 3.38064 6.55637L3.28781 6.69835L3.32535 6.86378L5.37711 15.9055L5.37751 15.9073L5.51624 16.5316L5.68231 17.2789L6.20094 16.7158C7.38492 15.4303 9.09093 14.0988 11.3494 13.6007L11.3494 13.6007L11.3536 13.5997C13.5824 13.0829 15.3655 13.6658 17.0456 14.215C17.0822 14.2269 17.1188 14.2389 17.1553 14.2508C17.1557 14.2509 17.156 14.251 17.1564 14.2512L17.1865 14.2612C18.7321 14.7765 20.1803 15.2592 22.0273 14.8529Z" fill="white" stroke="#F77F00" stroke-width="0.799997"/>
</g>
<defs>
<clipPath id="clip0_2118_893">
<rect width="31.9997" height="32" fill="white" transform="translate(0.166992 0.166504)"/>
</clipPath>
</defs>
</svg>
