<svg width="16" height="21" viewBox="0 0 16 21" fill="none" xmlns="http://www.w3.org/2000/svg">
<g clip-path="url(#clip0_10_162)">
<path d="M14 0.651367H2C0.89543 0.651367 0 1.5468 0 2.65137V18.6514C0 19.7559 0.89543 20.6514 2 20.6514H14C15.1046 20.6514 16 19.7559 16 18.6514V2.65137C16 1.5468 15.1046 0.651367 14 0.651367Z" fill="url(#paint0_linear_10_162)"/>
<path fill-rule="evenodd" clip-rule="evenodd" d="M3.87 5.65137V5.66137C3.439 5.66137 3.09 6.01137 3.09 6.44137C3.09 6.87137 3.439 7.22137 3.87 7.22137H6.859C7.29 7.22137 7.64 6.87137 7.64 6.43037C7.64 6.00137 7.29 5.65137 6.859 5.65137H3.87ZM11.71 11.7412H3.87003C3.43903 11.7412 3.09003 11.3912 3.09003 10.9612C3.09003 10.5312 3.43903 10.1802 3.87003 10.1802H11.71C12.14 10.1802 12.49 10.5312 12.49 10.9612C12.49 11.3912 12.14 11.7412 11.71 11.7412ZM11.71 16.3114H3.87C3.57 16.3514 3.28 16.2014 3.12 15.9514C2.96 15.6914 2.96 15.3614 3.12 15.1114C3.28 14.8514 3.57 14.7114 3.87 14.7414H11.71C12.109 14.7814 12.41 15.1214 12.41 15.5314C12.41 15.9304 12.109 16.2714 11.71 16.3114Z" fill="#8A9FF7"/>
</g>
<defs>
<linearGradient id="paint0_linear_10_162" x1="8.00002" y1="-0.348633" x2="7.83839" y2="34.6462" gradientUnits="userSpaceOnUse">
<stop stop-color="white"/>
<stop offset="1" stop-color="#CBACFF"/>
</linearGradient>
<clipPath id="clip0_10_162">
<rect width="16" height="21" fill="white"/>
</clipPath>
</defs>
</svg>
