<svg width="21" height="17" viewBox="0 0 21 17" fill="none" xmlns="http://www.w3.org/2000/svg">
<g clip-path="url(#clip0_10_192)">
<path d="M0.166016 3.56046C0.166016 1.95381 1.4452 0.651367 3.02316 0.651367H17.3089C18.8868 0.651367 20.166 1.95381 20.166 3.56046V13.7423C20.166 15.3489 18.8868 16.6514 17.3089 16.6514H3.02316C1.4452 16.6514 0.166016 15.3489 0.166016 13.7423V3.56046Z" fill="url(#paint0_linear_10_192)"/>
<path d="M17.3089 0.651367H3.02316C1.4452 0.651367 0.166016 1.83341 0.166016 3.29153V4.11595C0.166016 5.03841 0.687048 5.89399 1.54036 6.37272L8.31252 10.1721C9.45144 10.8111 10.8806 10.8111 12.0195 10.1721L18.7917 6.37272C19.645 5.89399 20.166 5.03841 20.166 4.11595V3.29153C20.166 1.83341 18.8868 0.651367 17.3089 0.651367Z" fill="white"/>
</g>
<defs>
<linearGradient id="paint0_linear_10_192" x1="10.166" y1="2.98915" x2="9.49087" y2="23.8137" gradientUnits="userSpaceOnUse">
<stop stop-color="white"/>
<stop offset="1" stop-color="#CBACFF"/>
</linearGradient>
<clipPath id="clip0_10_192">
<rect width="21" height="17" fill="white"/>
</clipPath>
</defs>
</svg>
