<svg xmlns="http://www.w3.org/2000/svg" width="37" height="37" fill="none" xmlns:v="https://vecta.io/nano"><circle cx="18.002" cy="18.002" r="17.002" stroke="#fff" stroke-width="2"/><g stroke="#231a50"><circle cx="18.002" cy="18.002" r="15.502" fill="#CDDEFF"/><path d="M29.548 18.002c0 1.899-.468 3.768-1.363 5.443s-2.189 3.102-3.768 4.157-3.393 1.704-5.283 1.89-3.796-.097-5.55-.823-3.302-1.875-4.507-3.342-2.029-3.21-2.399-5.072-.276-3.787.275-5.604 1.542-3.47 2.885-4.813l8.164 8.164h11.546z" stroke-linecap="round" stroke-linejoin="round" stroke-dasharray="0.68 4.77"/><path d="M10.188 17.099c.278-1.328 1.329-1.818 2.087-3.058.684-1.119 1.228-2.175 2-2.796 1.304-1.049 3.392-.886 5.131-.087 3.044 1.398 2.348 3.582 3.392 4.368 2.522 1.9 3.506 3.407 2.957 5.504-.435 1.66-3.479 1.835-4.696 2.708s-3.131 2.971-6.174 1.835c-2.788-1.041-5.282-5.679-4.696-8.475z" fill="#fff"/><path d="M20.136 18.002c0 1.655-1.255 2.944-2.741 2.944s-2.741-1.289-2.741-2.943 1.255-2.944 2.741-2.944 2.741 1.289 2.741 2.944z" fill="#cbacff"/></g><path d="M16.585 5.645l.405 2.025m3.11-1.781l-.642 2.04m3.866-.457l-1.513 1.512m3.628 1.302l-2.009.734" stroke="#fff" stroke-linecap="round"/></svg>