<svg width="64" height="64" viewBox="0 0 64 64" fill="none" xmlns="http://www.w3.org/2000/svg">
<g filter="url(#filter0_b_2118_810)">
<rect width="64" height="64" rx="32" fill="#F77F00"/>
<g clip-path="url(#clip0_2118_810)">
<path d="M52.4073 33.5596C50.5504 32.3375 49.2872 30.2634 47.9496 28.0677C47.7927 27.8101 47.6351 27.5516 47.4759 27.2928C50.0216 20.1026 46.5689 14.3219 46.4164 14.0726L45.4964 12.5684L39.5278 19.5055C37.3761 18.5658 34.8857 18.1046 32.0004 18.1046C29.1152 18.1046 26.6248 18.5659 24.473 19.5055L18.5044 12.5684L17.5844 14.0725C17.432 14.3218 13.9792 20.1026 16.5249 27.2927C16.3656 27.5515 16.208 27.8101 16.0511 28.0677C14.7137 30.2634 13.4503 32.3374 11.5935 33.5595L9.99023 34.6149L11.5769 35.695C11.6859 35.7693 22.5086 43.145 24.9772 45.6135C25.7581 46.3945 26.3797 47.2048 26.9811 47.9883C28.3399 49.7593 29.6233 51.4322 32.0004 51.4322C34.3775 51.4322 35.661 49.7593 37.0198 47.9883C37.621 47.2048 38.2426 46.3945 39.0237 45.6135C41.4921 43.145 52.3149 35.7692 52.424 35.695L54.0107 34.6149L52.4073 33.5596ZM44.9854 17.1022C45.5709 18.7201 46.1857 21.3693 45.5882 24.4674C44.7569 23.3632 43.8078 22.3113 42.6393 21.379C42.3744 21.1676 42.1026 20.9668 41.8243 20.7762L44.9854 17.1022ZM18.5061 18.8591C18.655 18.1908 18.8375 17.5996 19.017 17.104L22.1766 20.7764C21.8983 20.967 21.6266 21.1677 21.3617 21.3791C20.1915 22.3126 19.2414 23.3663 18.4092 24.472C18.0515 22.6362 18.083 20.7571 18.5061 18.8591ZM28.0332 45.1708C27.6611 44.7191 27.2534 44.2556 26.7942 43.7964C24.8355 41.8377 18.4448 37.3215 15.0968 34.9983C17.0289 34.4154 20.0355 33.7299 23.4913 33.7299C24.5115 33.7299 25.3201 34.0547 25.9632 34.7228C27.9745 36.8125 28.1163 41.6578 28.0332 45.1708ZM32.0004 48.8625C31.4433 48.8625 30.9881 48.6314 30.5035 48.18C30.5117 47.8546 30.5261 47.4767 30.542 47.0612C30.5458 46.9635 30.5496 46.8639 30.5533 46.7632H33.4476C33.4514 46.8639 33.4552 46.9635 33.4589 47.0612C33.4748 47.4767 33.4892 47.8546 33.4975 48.18C33.0127 48.6313 32.5576 48.8625 32.0004 48.8625ZM33.3798 44.1937H30.6212C30.656 40.2981 30.2961 35.5192 27.8146 32.9409C26.6774 31.7594 25.2229 31.1603 23.4914 31.1603C20.8933 31.1603 18.5404 31.51 16.6355 31.9369C17.2044 31.1126 17.7286 30.2536 18.2458 29.4045C19.558 27.2503 20.9149 25.0228 22.9643 23.3877C25.253 21.5618 28.2087 20.6741 32.0005 20.6741C35.7923 20.6741 38.748 21.5617 41.0367 23.3877C43.0862 25.0228 44.4431 27.2504 45.7552 29.4045C46.2724 30.2535 46.7966 31.1126 47.3655 31.9369C45.4606 31.51 43.1077 31.1603 40.5096 31.1603C38.7782 31.1603 37.3236 31.7594 36.1864 32.9409C33.7048 35.5191 33.3449 40.298 33.3798 44.1937ZM37.2067 43.7964C36.7475 44.2556 36.3399 44.7192 35.9676 45.1709C35.8845 41.6578 36.0263 36.8125 38.0376 34.7229C38.6807 34.0547 39.4891 33.73 40.5094 33.73C43.9513 33.73 46.9635 34.4169 48.9011 35.0004C45.5523 37.3241 39.1647 41.8383 37.2067 43.7964Z" fill="white"/>
<path d="M41.1152 35.1196C40.3033 35.1196 39.6445 35.7862 39.6445 36.6087C39.6445 37.431 40.3031 38.0977 41.1152 38.0977C41.9261 38.0977 42.5848 37.431 42.5848 36.6087C42.5848 35.7862 41.9262 35.1196 41.1152 35.1196Z" fill="white"/>
<path d="M22.8867 35.1196C22.0748 35.1196 21.416 35.7862 21.416 36.6087C21.416 37.431 22.0746 38.0977 22.8867 38.0977C23.6976 38.0977 24.3563 37.431 24.3563 36.6087C24.3562 35.7862 23.6976 35.1196 22.8867 35.1196Z" fill="white"/>
</g>
</g>
<defs>
<filter id="filter0_b_2118_810" x="-3.74616" y="-3.74616" width="71.4923" height="71.4923" filterUnits="userSpaceOnUse" color-interpolation-filters="sRGB">
<feFlood flood-opacity="0" result="BackgroundImageFix"/>
<feGaussianBlur in="BackgroundImageFix" stdDeviation="1.87308"/>
<feComposite in2="SourceAlpha" operator="in" result="effect1_backgroundBlur_2118_810"/>
<feBlend mode="normal" in="SourceGraphic" in2="effect1_backgroundBlur_2118_810" result="shape"/>
</filter>
<clipPath id="clip0_2118_810">
<rect width="44.0205" height="44.0205" fill="white" transform="translate(9.99023 9.98975)"/>
</clipPath>
</defs>
</svg>
