<svg xmlns="http://www.w3.org/2000/svg" width="170" height="36" fill="none" xmlns:v="https://vecta.io/nano"><path d="M154.873 32.839c.949 1.367 2.506 2.261 4.27 2.261 2.89 0 5.23-2.391 5.23-5.341 0-2.692-1.954-4.914-4.491-5.28-.243 3.6-2.078 6.504-5.009 8.36zM39.072 1.694H24.493V12.86h-9.792V1.694H4.427v32.613h10.274V22.652h9.792v11.655h14.586c-6.745-2.132-11.571-8.388-11.571-16.296 0-7.94 4.822-14.185 11.564-16.318zm11.528 16.246c0-3.579-2.84-6.482-6.348-6.482s-6.348 2.9-6.348 6.483 2.84 6.483 6.348 6.483 6.348-2.904 6.348-6.483zM83.537 4.239a16.65 16.65 0 0 0-5.708-2.753 16.62 16.62 0 0 0-.605-.158l-.204-.043A15.97 15.97 0 0 0 73.531.9c-.032 0-.063.004-.098.004-.021 0-.042-.004-.063-.004-.077 0-.148.007-.221.011-.239.004-.478.014-.714.029-1.132.061-2.207.226-3.216.503-7.044 1.798-12.463 7.976-12.463 16.547 0 9.024 6.063 15.438 13.693 16.813.935.179 1.912.276 2.924.276.021 0 .046-.004.067-.004.032 0 .063.004.095.004a15.34 15.34 0 0 0 3.023-.298 16.71 16.71 0 0 0 6.963-3.037c-2.847-2.157-4.966-5.241-5.965-8.909-1.082.926-2.478 1.482-4.003 1.482-3.452 0-6.246-2.857-6.246-6.378s2.798-6.378 6.246-6.378a6.15 6.15 0 0 1 4.031 1.511c1.012-3.643 3.125-6.694 5.954-8.834zm16.622 13.701c0-3.579-2.84-6.482-6.348-6.482s-6.348 2.9-6.348 6.483 2.84 6.483 6.348 6.483 6.348-2.904 6.348-6.483zm30.107 0c0 3.579-2.84 6.483-6.347 6.483s-6.348-2.9-6.348-6.483 2.84-6.482 6.348-6.482 6.347 2.9 6.347 6.483zm18.396 5.19c-.819-.808-2.688-1.253-4.572-1.831h-.004a29.96 29.96 0 0 1-.871-.276h-.004a27.24 27.24 0 0 1-2.654-1.012c-3.599-1.605-6.762-4.207-6.762-9.085 0-2.121.605-3.952 1.694-5.452C132.498 2.602 128.439.9 123.922.9c-9.311 0-16.744 7.251-16.744 17.111 0 9.813 7.43 17.089 16.744 17.089 4.281 0 8.147-1.536 11.089-4.139.225-.197.446-.402.657-.614l.264-.269a14.06 14.06 0 0 0 .531-.578l.27-.312c.166-.201.327-.406.482-.61l.239-.316c.183-.255.355-.517.524-.782l.126-.19c.875-1.421 1.554-2.997 1.989-4.698 2.932 2.523 5.761 2.807 6.717 2.807.935 0 2.285-.255 2.285-1.328-.004-.363-.158-.671-.433-.94zm9.582-17.825l-6.162 6.694c-2.305-1.587-4.474-2.283-5.729-2.283-1.026 0-1.757.488-1.757 1.167 0 1.188 2.784 1.795 5.799 2.728 1.842.567 4.854 1.414 6.995 3.546 1.188 1.181 2.098 2.764 2.407 4.907h3.283l2.675-20.478h-14.21c2.481.743 4.804 1.999 6.699 3.719z" fill="#fff"/></svg>