<svg width="33" height="33" viewBox="0 0 33 33" fill="none" xmlns="http://www.w3.org/2000/svg">
<g clip-path="url(#clip0_2118_884)">
<path d="M14.2977 14.7227C16.1415 14.7227 17.904 14.5789 19.2664 14.3227C20.7789 14.0414 21.3039 13.7039 21.3977 13.5789C21.4164 13.3227 21.6352 13.1227 21.8977 13.1227C22.1727 13.1227 22.3977 13.3477 22.3977 13.6227C22.3977 14.3539 21.5664 14.8664 19.7727 15.2414C18.304 15.5477 16.3602 15.7227 14.2977 15.7227C12.2353 15.7227 10.2915 15.5539 8.82278 15.2414C7.0353 14.8664 6.19781 14.3477 6.19781 13.6227C6.19781 13.3477 6.4228 13.1227 6.6978 13.1227C6.9603 13.1227 7.1728 13.3227 7.1978 13.5789C7.29155 13.7039 7.81654 14.0352 9.32903 14.3227C10.6915 14.5852 12.454 14.7227 14.2977 14.7227ZM31.7226 5.12891C31.6788 5.25391 31.5913 5.36016 31.4726 5.41641L22.6164 9.81016C26.0664 10.6852 28.0101 12.0477 28.0101 13.6289C28.0101 15.0164 26.5539 16.2227 23.7914 17.1039C23.6164 17.1602 23.4414 17.2164 23.2602 17.2664V27.5039C23.2602 29.0477 22.3164 30.2977 20.5414 31.1227C19.0852 31.7977 17.0727 32.1664 14.8727 32.1664C10.2478 32.1664 5.32906 30.5289 5.32906 27.5039V17.2602C5.14781 17.2102 4.97282 17.1539 4.79782 17.0977C2.04159 16.2164 0.579102 15.0102 0.579102 13.6227C0.579102 12.2352 2.03534 11.0289 4.79782 10.1477C7.34155 9.32891 10.7165 8.87891 14.2977 8.87891C15.4977 8.87891 16.6915 8.92891 17.8352 9.02891L30.2226 2.88516C30.4726 2.76016 30.7664 2.86641 30.8914 3.11016L31.7038 4.74141C31.7601 4.86641 31.7663 5.00391 31.7226 5.12891ZM15.0415 11.5352L15.404 12.2727L18.3352 10.8164L17.9727 10.0789L15.0415 11.5352ZM22.2664 17.5227C19.9664 18.0727 17.204 18.3664 14.2977 18.3664C11.3978 18.3664 8.62904 18.0727 6.32905 17.5227V27.4977C6.32905 28.8414 7.93529 29.7102 8.88528 30.1039C10.4978 30.7789 12.679 31.1602 14.8727 31.1602C16.929 31.1602 18.7915 30.8227 20.1164 30.2039C21.5352 29.5477 22.2602 28.6352 22.2602 27.4914V17.5227H22.2664ZM21.1977 10.5102L15.404 13.3852C15.3352 13.4227 15.254 13.4352 15.1852 13.4352C15.004 13.4352 14.8227 13.3352 14.7352 13.1602L13.9227 11.5289C13.8665 11.4102 13.854 11.2727 13.8977 11.1477C13.9415 11.0227 14.029 10.9164 14.1477 10.8602L16.0477 9.91641C15.4727 9.89141 14.8852 9.87891 14.2977 9.87891C10.8165 9.87891 7.55404 10.3102 5.10406 11.0977C2.89783 11.8039 1.57909 12.7477 1.57909 13.6227C1.57909 14.4977 2.89783 15.4414 5.10406 16.1477C7.55404 16.9352 10.8165 17.3664 14.2977 17.3664C17.779 17.3664 21.0414 16.9352 23.4914 16.1477C25.6976 15.4414 27.0164 14.4977 27.0164 13.6227C27.0164 13.0789 26.4851 12.4789 25.5164 11.9414C24.4727 11.3664 22.9852 10.8727 21.1977 10.5102ZM30.5851 4.74141L30.2226 4.00391L18.8727 9.62891L19.2352 10.3664L30.5851 4.74141ZM13.9102 6.19141H14.2102V6.49766C14.2102 6.77266 14.4352 6.99766 14.7102 6.99766C14.9852 6.99766 15.2102 6.77266 15.2102 6.49766V6.19141H15.5165C15.7915 6.19141 16.0165 5.96641 16.0165 5.69141C16.0165 5.41641 15.7915 5.19141 15.5165 5.19141H15.2102V4.89141C15.2102 4.61641 14.9852 4.39141 14.7102 4.39141C14.4352 4.39141 14.2102 4.61641 14.2102 4.89141V5.19141H13.9102C13.6352 5.19141 13.4102 5.41641 13.4102 5.69141C13.4102 5.96641 13.629 6.19141 13.9102 6.19141ZM19.1102 2.01641C19.1102 1.85391 19.1914 1.70391 19.3227 1.61016L20.0477 1.09766L20.5602 0.372656C20.6539 0.241406 20.8039 0.160156 20.9664 0.160156C21.1289 0.160156 21.2789 0.241406 21.3727 0.372656L21.8852 1.09766L22.6039 1.61016C22.7352 1.70391 22.8164 1.85391 22.8164 2.01641C22.8164 2.17891 22.7414 2.32891 22.6039 2.42266L21.8789 2.93516L21.3727 3.66641C21.2789 3.79766 21.1289 3.87891 20.9664 3.87891C20.8039 3.87891 20.6539 3.79766 20.5602 3.66641L20.0414 2.94141L19.3164 2.42891C19.1914 2.33516 19.1102 2.17891 19.1102 2.01641ZM20.4727 2.02266L20.6914 2.17891C20.7352 2.21016 20.7789 2.25391 20.8102 2.29766L20.9664 2.51641L21.1227 2.29766C21.1539 2.25391 21.1914 2.21016 21.2414 2.17891L21.4602 2.02266L21.2414 1.86641C21.1977 1.83516 21.1539 1.79141 21.1227 1.74766L20.9664 1.52891L20.8102 1.74766C20.7789 1.79141 20.7352 1.83516 20.6914 1.86641L20.4727 2.02266ZM31.2538 9.77266C31.2538 9.93516 31.1788 10.0852 31.0414 10.1789L30.3164 10.6914L29.8039 11.4164C29.7101 11.5477 29.5601 11.6289 29.3976 11.6289C29.2351 11.6289 29.0851 11.5539 28.9914 11.4164L28.4789 10.6914L27.7539 10.1789C27.6226 10.0852 27.5414 9.93516 27.5414 9.77266C27.5414 9.61016 27.6164 9.46016 27.7539 9.36641L28.4789 8.85391L28.9914 8.12891C29.0851 7.99766 29.2351 7.91641 29.3976 7.91641C29.5601 7.91641 29.7101 7.99141 29.8039 8.12891L30.3164 8.85391L31.0414 9.36641C31.1726 9.46016 31.2538 9.61016 31.2538 9.77266ZM29.8914 9.77266L29.6726 9.61641C29.6289 9.58516 29.5851 9.54766 29.5539 9.49766L29.3976 9.27891L29.2414 9.49766C29.2101 9.54141 29.1726 9.58516 29.1226 9.61641L28.9039 9.77266L29.1226 9.92891C29.1664 9.96016 29.2101 9.99766 29.2414 10.0477L29.3976 10.2664L29.5539 10.0477C29.5851 10.0039 29.6226 9.96016 29.6726 9.92891L29.8914 9.77266Z" fill="white"/>
</g>
<defs>
<clipPath id="clip0_2118_884">
<rect width="31.9997" height="32" fill="white" transform="translate(0.166992 0.166504)"/>
</clipPath>
</defs>
</svg>
