<svg xmlns="http://www.w3.org/2000/svg" width="44" height="32" fill="none" xmlns:v="https://vecta.io/nano"><mask id="A" maskUnits="userSpaceOnUse" x="-.767" y="1.105" width="45" height="30" fill="#000"><path fill="#fff" d="M-.767 1.105h45v30h-45z"/><path fill-rule="evenodd" d="M35.056 4.215l-2.044 1.233c-.357.215-.472.679-.258 1.036l.619 1.033-.398-.542-2.623 1.098c-.438.205-.884.285-1.301.226l-3.347-.645c-.625-.136-1.257-.21-1.878-.221-1.205-.022-3.456.007-5.028.432a2.06 2.06 0 0 0-.41.162l-.602.31c-.298.153-.561.376-.779.67l-.182.345-.083.16c-1.326-.161-2.675-.381-3.173-.63-.565-.282-1.321-.847-1.911-1.325a.79.79 0 0 0-1.023.019l.627-1.001c.222-.353.116-.819-.237-1.042L9.006 4.259c-.352-.222-.818-.118-1.042.233l-5.612 8.798c-.22.344-.126.801.211 1.031l2.038 1.394c.355.243.84.141 1.068-.223l2.735-4.361-2.116 3.429c-.198.32-.13.737.161.977l1.401 1.141c.595.476 1.062 1.326 1.292 1.85a.92.92 0 0 0 .07.13l-.031.029-.718.812c-.67.758-.616 1.893.125 2.583.344.321.798.498 1.265.498l.145-.006a1.83 1.83 0 0 0 .507-.124s-.403 1.333.81 2.199c.946.676 2.426-.347 2.426-.347s-.347 1.213.52 1.733c1.329.797 2.599-.52 2.599-.52-.173.866-.069 1.317.346 1.733s1.329.231 1.733 0c.309-.177.672-.752.888-1.199 1.078.715 5.438 3.334 6.39 2.065.52-.693.693-1.213.173-2.079.68.371 1.906.347 2.426-.347.263-.351.347-1.04-.173-1.906.52.346 1.991.717 2.599-.347.693-1.213-.347-1.906-.866-2.253.693.462 1.698.208 2.253-.347.693-.693.52-1.213.173-1.733a1.32 1.32 0 0 0-.16-.181 5.23 5.23 0 0 1 .37-.182c.599-.279 1.655-.77 2.464-1.643.17-.183.379-.353.64-.517l1.892-1.328.156.26c.221.368.704.479 1.063.244l2.066-1.352c.342-.224.444-.678.232-1.027l-5.431-8.911c-.217-.356-.68-.469-1.037-.254z"/></mask><path fill-rule="evenodd" d="M35.056 4.215l-2.044 1.233c-.357.215-.472.679-.258 1.036l.619 1.033-.398-.542-2.623 1.098c-.438.205-.884.285-1.301.226l-3.347-.645c-.625-.136-1.257-.21-1.878-.221-1.205-.022-3.456.007-5.028.432a2.06 2.06 0 0 0-.41.162l-.602.31c-.298.153-.561.376-.779.67l-.182.345-.083.16c-1.326-.161-2.675-.381-3.173-.63-.565-.282-1.321-.847-1.911-1.325a.79.79 0 0 0-1.023.019l.627-1.001c.222-.353.116-.819-.237-1.042L9.006 4.259c-.352-.222-.818-.118-1.042.233l-5.612 8.798c-.22.344-.126.801.211 1.031l2.038 1.394c.355.243.84.141 1.068-.223l2.735-4.361-2.116 3.429c-.198.32-.13.737.161.977l1.401 1.141c.595.476 1.062 1.326 1.292 1.85a.92.92 0 0 0 .07.13l-.031.029-.718.812c-.67.758-.616 1.893.125 2.583.344.321.798.498 1.265.498l.145-.006a1.83 1.83 0 0 0 .507-.124s-.403 1.333.81 2.199c.946.676 2.426-.347 2.426-.347s-.347 1.213.52 1.733c1.329.797 2.599-.52 2.599-.52-.173.866-.069 1.317.346 1.733s1.329.231 1.733 0c.309-.177.672-.752.888-1.199 1.078.715 5.438 3.334 6.39 2.065.52-.693.693-1.213.173-2.079.68.371 1.906.347 2.426-.347.263-.351.347-1.04-.173-1.906.52.346 1.991.717 2.599-.347.693-1.213-.347-1.906-.866-2.253.693.462 1.698.208 2.253-.347.693-.693.52-1.213.173-1.733a1.32 1.32 0 0 0-.16-.181 5.23 5.23 0 0 1 .37-.182c.599-.279 1.655-.77 2.464-1.643.17-.183.379-.353.64-.517l1.892-1.328.156.26c.221.368.704.479 1.063.244l2.066-1.352c.342-.224.444-.678.232-1.027l-5.431-8.911c-.217-.356-.68-.469-1.037-.254z" fill="#8c5aff"/><path d="M33.012 5.447l1.033 1.713h0l-1.033-1.712zm2.044-1.233l-1.033-1.713h0l1.033 1.713zm-2.302 2.269l-1.716 1.028h0l1.716-1.028zm.619 1.033L31.76 8.7l3.329-2.21-1.716 1.028zm-.398-.542l1.613-1.183-.932-1.271-1.453.609.772 1.845zm-2.623 1.098l-.772-1.845-.038.016-.038.018.848 1.811zm-1.301.226l-.284 1.98h.005l.279-1.98zm-3.347-.645l-.425 1.954h.001l.424-1.955zm-1.878-.221l-.036 2h0l.036-2zm-5.028.432l-.522-1.931h-.001l.522 1.931zm-.41.162l.915 1.778.003-.001-.918-1.777zm-.602.31l.913 1.779.002-.001-.915-1.778zm-.779.67l-1.608-1.189-.089.121-.07.133 1.768.935zm-.182.345l-1.768-.935-.005.01 1.773.925zm-.083.16l-.242 1.985 1.374.167.641-1.227-1.773-.925zm-5.084-1.955L10.397 9.11h0l1.259-1.554zm-1.023.019L8.939 6.513l3.032 2.549-1.338-1.487zm.627-1.001l1.694 1.063h0l-1.694-1.063zm-.237-1.042L9.956 7.224h0l1.068-1.691zM9.006 4.259l1.068-1.691h0L9.006 4.259zm-1.042.233L9.65 5.567h0L7.964 4.491zm-5.612 8.798L.666 12.213l1.686 1.076zm.211 1.031l-1.129 1.651h0l1.129-1.651zm2.038 1.394l1.129-1.651h0l-1.129 1.651zm1.068-.223L3.974 14.43l1.694 1.063zm2.735-4.361l1.702 1.05-3.396-2.113 1.694 1.063zM6.288 14.56l1.702 1.05-1.702-1.05zm.161.977l1.273-1.543-1.273 1.543zm1.401 1.141L6.6 18.24h0l1.249-1.562zm1.292 1.85l1.831-.804h0l-1.831.804zm.07.13l1.378 1.45 1.203-1.143-.902-1.393-1.679 1.087zm-.031.029l-1.378-1.45-.063.06-.057.065 1.498 1.325zm-.718.812l-1.498-1.325h0l1.498 1.325zm.125 2.583l1.365-1.462-.001-.001-1.364 1.463zm1.41.492l-.158-1.994-.007.001.165 1.993zm.507-.124l1.915.579 1.178-3.899-3.806 1.451.713 1.869zm.81 2.199l1.162-1.628h0l-1.162 1.628zm2.426-.347l1.923.549 1.533-5.367-4.593 3.172 1.137 1.646zm.52 1.733l-1.029 1.715h0l1.029-1.715zm2.599-.52l1.961.392 1.339-6.696-4.74 4.916 1.44 1.388zm.346 1.733l-1.414 1.414h0l1.414-1.414zm1.733 0l.992 1.736h0l-.992-1.736zm.888-1.199l1.105-1.667-1.91-1.266-.997 2.064 1.801.87zm6.39 2.065l1.6 1.2-1.6-1.2zm.173-2.079l.958-1.756-6.457-3.522 3.784 6.307 1.715-1.029zm2.426-.347l-1.6-1.2h0l1.6 1.2zm-.173-1.906l1.109-1.664-2.824 2.693 1.715-1.029zm2.599-.347l-1.737-.992 1.737.992zm1.386-2.599l1.414 1.414h0l-1.414-1.414zm.173-1.733l1.664-1.109h0l-1.664 1.109zm-.16-.181l-1.009-1.727-2.253 1.315 1.855 1.834 1.406-1.422zm.37-.182l-.844-1.813h0l.844 1.813zm2.464-1.643l1.467 1.36h0l-1.467-1.36zm.64-.517l1.065 1.693.043-.027.041-.029-1.149-1.637zm1.892-1.328l1.716-1.028-1.105-1.845-1.76 1.235 1.149 1.637zm.156.26l1.716-1.028h0l-1.716 1.028zm1.063.244l1.095 1.673-1.095-1.673zm2.066-1.352l-1.095-1.673h0l1.095 1.673zm.232-1.027l-1.708 1.041h0l1.708-1.041zm-5.431-8.911l-1.708 1.041h0l1.708-1.041zM34.045 7.16l2.044-1.233-2.066-3.425-2.044 1.233 2.066 3.425zm.424-1.704c.352.588.162 1.35-.424 1.704l-2.066-3.425c-1.301.785-1.721 2.474-.941 3.777l3.432-2.055zm.619 1.033l-.619-1.033-3.431 2.055.619 1.033 3.432-2.055zm-3.726 1.668l.398.542 3.226-2.365-.398-.542-3.226 2.365zm-.238 1.761l2.624-1.098-1.545-3.69-2.623 1.098 1.545 3.69zm-2.353.361c.865.122 1.702-.054 2.429-.395l-1.697-3.622c-.149.07-.204.052-.173.056l-.559 3.961zm-3.491-.671l3.487.67.568-3.959-3.207-.62-.848 3.909zm-1.49-.176c.487.009.988.067 1.489.176l.85-3.909c-.75-.163-1.512-.253-2.267-.266l-.072 3.999zm-4.471.363c1.268-.343 3.259-.385 4.471-.363l.072-3.999c-1.198-.022-3.709-.007-5.586.501l1.044 3.861zm-.014.009l.025-.012-1.055-3.858a4.06 4.06 0 0 0-.805.316l1.835 3.554zm-.604.311l.602-.31-1.83-3.557-.602.31 1.83 3.557zm-.086.081c.023-.031.041-.048.052-.058a.16.16 0 0 1 .032-.022l-1.827-3.558c-.582.299-1.08.727-1.474 1.261l3.217 2.378zm-.023.091l.182-.345-3.536-1.87-.182.345 3.536 1.871zm-.078.15l.083-.16-3.546-1.851-.083.16 3.546 1.851zm-5.84.234c.533.266 1.258.423 1.801.525l2.025.302.483-3.971-1.769-.262-.609-.134c-.174-.047-.199-.066-.142-.038l-1.789 3.578zm-2.276-1.56c.592.48 1.497 1.17 2.276 1.56l1.789-3.578c-.351-.175-.959-.614-1.547-1.09L10.397 9.11zm1.574-.048a1.21 1.21 0 0 1-1.574.048l2.518-3.108c-1.071-.867-2.609-.822-3.619.087l2.676 2.973zm-2.405-3.55l-.627 1.001 3.389 2.125.627-1.001-3.389-2.125zm.389 1.712c-.579-.366-.754-1.132-.389-1.712l3.389 2.125c.807-1.287.421-2.984-.863-3.795L9.956 7.224zM7.938 5.95l2.018 1.275 2.136-3.382-2.018-1.275L7.938 5.95zm1.712-.383c-.368.577-1.134.748-1.712.383l2.136-3.382c-1.283-.81-2.98-.431-3.796.848L9.65 5.567zm-5.612 8.798L9.65 5.567 6.278 3.416.666 12.213l3.372 2.151zm-.346-1.695c.554.379.707 1.129.346 1.695L.666 12.213c-.8 1.254-.461 2.917.767 3.758l2.259-3.301zm2.038 1.394L3.692 12.67l-2.259 3.301 2.038 1.394 2.259-3.301zm-1.756.366c.375-.598 1.173-.764 1.756-.366l-2.259 3.301c1.292.884 3.06.516 3.892-.811L3.974 14.43zm2.735-4.361L3.974 14.43l3.389 2.125 2.735-4.361-3.389-2.125zm1.281 5.542l2.116-3.429-3.404-2.1-2.116 3.429 3.404 2.101zm-.269-1.616c.485.4.593 1.091.269 1.616L4.586 13.51c-.719 1.166-.476 2.691.59 3.57l2.545-3.086zm1.378 1.122l-1.378-1.122-2.545 3.086L6.6 18.24l2.499-3.124zm1.874 2.607c-.261-.594-.887-1.818-1.874-2.607L6.6 18.24c.067.053.197.192.357.437.15.231.275.475.354.656l3.662-1.609zm-.083-.153a1.08 1.08 0 0 1 .083.153L7.31 19.333a2.92 2.92 0 0 0 .222.412l3.358-2.174zm-.332 2.566l.031-.029-2.756-2.899-.031.029 2.756 2.899zm-.598.687l.718-.812-2.996-2.65-.718.812 2.996 2.65zm-.01-.205c.02.018.04.056.042.1s-.015.084-.032.104l-2.997-2.649c-1.388 1.57-1.274 3.941.259 5.371l2.728-2.925zm-.099-.039c.036 0 .071.012.1.04l-2.73 2.924c.717.669 1.66 1.036 2.629 1.036v-4zm-.02.001l.02-.001v4l.31-.012-.33-3.986zm-.04.001l-.028.01a.48.48 0 0 1 .075-.011l.316 3.987a3.82 3.82 0 0 0 1.062-.249l-1.425-3.737zm2.685 2.44c-.054-.038-.051-.051-.04-.029l.005-.051-.009.039-.006.022-.006.02c-.002.006-.002.007-1.917-.571l-1.915-.577-.01.033-.012.044-.028.116-.06.336a4.24 4.24 0 0 0-.011 1.051c.102.885.529 1.998 1.684 2.823l2.325-3.255zm1.264 1.281l-1.136-1.646-.082.047a2.03 2.03 0 0 1-.303.138c-.116.041-.159.038-.134.038.043 0 .21.013.39.142l-2.325 3.255c1.306.932 2.755.563 3.391.34a6.02 6.02 0 0 0 .922-.416l.275-.162.087-.056.03-.02.018-.012c.002-.001.002-.001-1.134-1.647zm1.549.018a.87.87 0 0 1 .329.362c.028.058.041.104.047.131s.007.042.007.043l.004-.049-.007.024c-.005.02-.006.02-1.929-.529l-1.924-.548-.007.026-.01.036-.023.095-.054.281c-.034.218-.066.534-.045.899.041.704.322 1.921 1.552 2.659l2.058-3.43zm1.57 1.195l-1.439-1.389.023-.023-.047.04a1.07 1.07 0 0 1-.196.125c-.069.033-.083.026-.048.024.021-.001.051.001.084.009.016.004.029.008.039.012l-2.044 3.437c1.443.866 2.849.528 3.685.131.416-.197.746-.43.968-.606l.275-.235.087-.083.031-.031.017-.018c.004-.004.005-.005-1.435-1.393zm1.761.319c-.005-.005.028.027.067.095a.76.76 0 0 1 .052.111.72.72 0 0 1 .031.106c.012.06.007.082.009.042s.011-.13.041-.281l-3.922-.784c-.109.544-.18 1.178-.045 1.832a3.33 3.33 0 0 0 .939 1.707l2.828-2.828zm-.674-.322c.064-.037.084-.038.051-.028-.026.008-.051.011-.06.012-.015.001.038-.006.142.02s.327.105.54.318l-2.828 2.828c.822.822 1.887.861 2.424.823.599-.042 1.225-.221 1.715-.501l-1.985-3.473zm.079-.332l-.116.218-.126.199-.061.079c.002-.002.018-.019.049-.045a1.18 1.18 0 0 1 .175-.12l1.985 3.473c.559-.319.938-.821 1.121-1.082.23-.326.429-.68.576-.984l-3.602-1.739zm6.591 1.735c.468-.624 1.06-.407.629-.467-.291-.041-.763-.187-1.377-.454-1.198-.522-2.45-1.288-2.936-1.61l-2.211 3.334c.593.393 2.059 1.294 3.548 1.943.73.318 1.593.633 2.421.749.687.096 2.182.164 3.125-1.094l-3.2-2.4zm.058.15c.062.104.06.126.049.083-.006-.024-.014-.062-.018-.113a.78.78 0 0 1 .005-.159c.015-.109.046-.17.043-.163s-.012.023-.035.059l-.101.143 3.2 2.4c.308-.411.745-1.057.859-1.91.123-.924-.17-1.73-.571-2.398l-3.43 2.058zm2.541-2.576c.097-.129.198-.189.242-.209s.044-.012.003-.008a.48.48 0 0 1-.126-.005l-.021-.005.034.018-1.915 3.512c.747.407 1.639.54 2.433.46.785-.08 1.839-.414 2.551-1.362l-3.2-2.4zm-.288.323c.116.194.099.256.096.186-.002-.061.01-.267.192-.509l3.2 2.4c.906-1.208.729-2.823-.058-4.135l-3.43 2.058zm2.578-2.368a.63.63 0 0 1 .121-.148c.057-.052.117-.09.171-.116.102-.048.157-.041.123-.041a.61.61 0 0 1-.158-.028c-.03-.009-.051-.018-.06-.022s.007.002.049.03l-2.219 3.328c.591.394 1.472.686 2.364.692.962.006 2.303-.348 3.081-1.71l-3.473-1.985zm-.239.404l.284.202c.068.057.063.066.035.022a.77.77 0 0 1-.111-.383c-.006-.19.054-.283.032-.245l3.473 1.985c.325-.569.515-1.203.492-1.875s-.252-1.229-.528-1.655c-.498-.77-1.249-1.24-1.458-1.379l-2.219 3.328zm1.948-3.425c.018-.018.022-.017.008-.009a.13.13 0 0 1-.03.011c-.021.004.112-.026.294.095l-2.219 3.328c.875.583 1.857.657 2.65.511a4.08 4.08 0 0 0 2.126-1.107l-2.828-2.828zm-.077.791c.049.074.046.08.029.039-.02-.05-.062-.173-.062-.347 0-.184.046-.338.097-.441.044-.09.072-.102.013-.042l2.828 2.828c.581-.581 1.062-1.363 1.062-2.346 0-.896-.413-1.572-.639-1.911l-3.328 2.219zm.098.132c.017.017.018.018.008.007l-.034-.04-.072-.099 3.328-2.219a3.24 3.24 0 0 0-.418-.494l-2.812 2.845zm.933-3.418l-.535.268 2.017 3.454-.02.011.039-.019.187-.088-1.687-3.627zm1.841-1.189c-.51.55-1.224.902-1.841 1.189l1.687 3.627c.582-.271 1.98-.902 3.087-2.096l-2.934-2.719zm1.042-.85c-.379.238-.731.515-1.042.85l2.934 2.719c.029-.032.096-.094.238-.183l-2.13-3.386zm1.808-1.272l-1.892 1.328 2.298 3.274 1.892-1.328-2.298-3.274zm3.02.869l-.156-.26-3.432 2.055.156.26 3.432-2.055zm-1.748-.401c.591-.387 1.385-.204 1.748.401l-3.432 2.055c.805 1.343 2.565 1.747 3.875.89l-2.191-3.347zm2.066-1.352l-2.066 1.352 2.191 3.347 2.066-1.352-2.191-3.347zm-.381 1.688c-.349-.573-.181-1.32.381-1.688l2.191 3.347c1.245-.815 1.618-2.47.844-3.741l-3.416 2.082zm-5.431-8.911l5.431 8.911 3.416-2.082L37.8 3.428l-3.416 2.082zm1.704.418c-.586.354-1.348.167-1.704-.418L37.8 3.428c-.79-1.296-2.478-1.71-3.778-.926l2.066 3.425z" fill="#fff" mask="url(#A)"/><path d="M13.587 8.8c-.563-.283-1.316-.847-1.905-1.326-.366-.297-.917-.216-1.163.186l-4.201 6.84c-.196.32-.129.735.16.975l1.401 1.146c.594.478 1.061 1.331 1.29 1.856.065.148.165.276.299.364 3.968 2.612 9.53 6.617 10.346 7.163 1.038.695 5.443 3.367 6.4 2.085.519-.695.692-1.216.173-2.085.679.372 1.903.348 2.422-.348.263-.352.346-1.043-.173-1.912.519.348 1.988.719 2.595-.348.692-1.216-.346-1.912-.865-2.259.692.463 1.695.208 2.249-.348.692-.695.519-1.216.173-1.738-.391-.59-5.017-3.997-7.438-5.561l-6.072-3.727a.76.76 0 0 0-.337-.11c-1.562-.128-4.556-.454-5.354-.854z" fill="#CDDEFF"/><g stroke="#231a50"><path d="M30.366 21.138c.692.463 1.695.208 2.249-.348.692-.695.519-1.216.173-1.738-.391-.59-5.017-3.997-7.438-5.561l-6.072-3.727a.76.76 0 0 0-.337-.11c-1.562-.128-4.556-.454-5.354-.854-.563-.283-1.316-.847-1.905-1.326-.366-.297-.917-.216-1.163.186l-4.201 6.84c-.196.32-.129.735.16.975l1.401 1.146c.594.478 1.061 1.331 1.29 1.856.065.148.165.276.299.364 3.968 2.612 9.53 6.617 10.346 7.163 1.038.695 5.443 3.367 6.4 2.085.519-.695.692-1.216.173-2.085m3.979-4.866L25.35 18.01m5.016 3.128c.519.347 1.557 1.043.865 2.259-.607 1.067-2.076.695-2.595.348m0 0c.519.869.436 1.56.173 1.912-.519.695-1.743.72-2.422.348m2.249-2.259l-5.189-2.954m2.941 5.213a119.03 119.03 0 0 0-4.325-2.259" stroke-linecap="round"/><path d="M10.887 5.52L8.895 4.299c-.348-.214-.803-.112-1.028.229l-5.565 8.468c-.229.348-.133.815.214 1.046l2.011 1.336c.351.233.825.134 1.054-.22l5.545-8.583c.231-.357.122-.833-.24-1.055z" fill="#cbacff"/></g><path d="M8.31 19.583l.73-.823.304-.288.015-.012a1.84 1.84 0 0 1 2.388.026c.4.348.607.833.621 1.329 0 0 .959-1.509 2.193-1.158 1.202.342 1.465 1.158 1.234 1.932-.078.261-.511 1.189-.881 1.756 0 0 .991-.994 1.41-1.054 1.234-.176 1.763 1.025 1.763 1.581 0 .351.044.724-.353 1.405.353-.212 1.129-.421 1.763 0 .529.351.705 1.054.529 1.581-.141.422-.646 1.347-1.058 1.581s-1.34.422-1.763 0-.529-.878-.353-1.756c0 0-1.292 1.335-2.644.527-.881-.527-.529-1.756-.529-1.756s-1.505 1.036-2.468.351c-1.234-.878-.824-2.229-.824-2.229-.165.063-.336.111-.516.125l-.148.006c-.475 0-.937-.18-1.286-.505-.753-.7-.809-1.85-.127-2.619z" fill="#fff"/><g stroke="#231a50"><path d="M10.387 22.575c-.165.063-.336.111-.516.125l-.148.006c-.475 0-.937-.18-1.286-.505-.753-.7-.809-1.85-.127-2.619l.73-.823.304-.288.015-.012a1.84 1.84 0 0 1 2.388.026c.4.348.607.833.621 1.329m-1.98 2.76l1.98-2.76m-1.98 2.76s-.41 1.351.824 2.229c.962.685 2.468-.351 2.468-.351m-1.311-4.638s.959-1.509 2.193-1.158c1.202.342 1.465 1.158 1.234 1.932-.078.261-.511 1.189-.881 1.756m-1.234 2.108s-.353 1.23.529 1.756c1.352.808 2.644-.527 2.644-.527m-3.173-1.23s.384-.806 1.234-2.108m1.939 3.337l.881-1.405m-.881 1.405c-.176.878-.07 1.335.353 1.756s1.351.234 1.763 0 .917-1.159 1.058-1.581c.176-.527 0-1.23-.529-1.581-.633-.421-1.41-.212-1.763 0m-2.82-1.932s.991-.994 1.41-1.054c1.234-.176 1.763 1.025 1.763 1.581 0 .351.044.724-.353 1.405"/><path d="M30.271 8.015l2.639-1.126 5.752 7.994-2.593 1.855c-.262.168-.472.342-.643.53-1.044 1.148-2.498 1.652-2.863 1.878l-1.569-.711c-4.435-3.746-7.345-5.668-8.971-6.519a1.67 1.67 0 0 0-1.248-.123l-.464.137c-.349.102-.662.321-.882.614l-.715.954c-.565.754-1.372 1.265-2.271 1.439-.367.071-.69.122-.961.152-.283.031-.558.009-.817-.065-.522-.149-.887-.652-.887-1.223a1.56 1.56 0 0 1 .439-1.101l.426-.44c.723-.75 1.333-1.599 1.812-2.524l.004-.004.209-.408.183-.353a2.26 2.26 0 0 1 .784-.687l.605-.317c.141-.074.276-.129.412-.166 1.582-.436 3.846-.465 5.058-.442.624.011 1.26.087 1.889.227 1.869.413 2.862.588 3.367.662.42.06.868-.021 1.309-.231z" fill="#fff"/><path d="M33.012 5.448l2.044-1.233c.357-.215.82-.102 1.037.254l5.431 8.911c.212.349.11.803-.232 1.027l-2.066 1.352c-.359.235-.842.124-1.063-.244l-5.409-9.03c-.214-.358-.099-.821.258-1.036z" fill="#cbacff"/></g></svg>