<svg width="43" height="42" viewBox="0 0 43 42" fill="none" xmlns="http://www.w3.org/2000/svg">
<mask id="path-1-inside-1_2118_833" fill="white">
<path d="M38.2599 25.7425C37.7703 24.7979 36.9279 24.0844 35.9156 23.7568C34.9033 23.4292 33.8027 23.5139 32.8524 23.9925L26.9199 26.915C26.8659 25.7915 26.3813 24.7319 25.5666 23.9563C24.7519 23.1807 23.6698 22.7487 22.5449 22.75H14.6699C14.448 22.7467 14.2278 22.7884 14.0224 22.8725L5.27242 26.3725C4.94681 26.5022 4.66763 26.7266 4.47106 27.0168C4.27449 27.307 4.16958 27.6495 4.16992 28V36.75C4.16992 37.2141 4.3543 37.6592 4.68249 37.9874C5.01067 38.3156 5.45579 38.5 5.91992 38.5H23.4199C23.734 38.4999 24.0423 38.4153 24.3124 38.255L37.1574 30.66C37.2827 30.5925 37.3952 30.5036 37.4899 30.3975C38.0918 29.8013 38.4903 29.0305 38.6285 28.1947C38.7668 27.3588 38.6378 26.5007 38.2599 25.7425ZM35.1099 27.8075L22.9474 35H7.66992V29.19L15.0024 26.25H22.5449C22.777 26.25 22.9995 26.3422 23.1636 26.5063C23.3277 26.6704 23.4199 26.8929 23.4199 27.125C23.4199 27.3571 23.3277 27.5796 23.1636 27.7437C22.9995 27.9078 22.777 28 22.5449 28H18.1699C17.7058 28 17.2607 28.1844 16.9325 28.5126C16.6043 28.8407 16.4199 29.2859 16.4199 29.75C16.4199 30.2141 16.6043 30.6593 16.9325 30.9874C17.2607 31.3156 17.7058 31.5 18.1699 31.5H25.1699C25.4439 31.4984 25.7136 31.4324 25.9574 31.3075L34.4274 27.09C34.4879 27.0572 34.5545 27.037 34.6231 27.0307C34.6917 27.0244 34.7608 27.0322 34.8263 27.0534C34.8918 27.0747 34.9522 27.1091 35.004 27.1545C35.0558 27.1999 35.0978 27.2554 35.1274 27.3175C35.1632 27.3948 35.1802 27.4795 35.1772 27.5646C35.1741 27.6497 35.1511 27.7329 35.1099 27.8075ZM14.6699 14H15.8249C15.9429 14.3944 16.1012 14.7756 16.2974 15.1375L15.4749 15.96C15.3109 16.1227 15.1807 16.3162 15.0919 16.5295C15.003 16.7427 14.9573 16.9715 14.9573 17.2025C14.9573 17.4335 15.003 17.6623 15.0919 17.8755C15.1807 18.0888 15.3109 18.2823 15.4749 18.445C15.6376 18.609 15.8312 18.7392 16.0444 18.8281C16.2577 18.9169 16.4864 18.9626 16.7174 18.9626C16.9484 18.9626 17.1772 18.9169 17.3904 18.8281C17.6037 18.7392 17.7972 18.609 17.9599 18.445L18.7824 17.6225C19.1443 17.8187 19.5255 17.977 19.9199 18.095V19.25C19.9199 19.7141 20.1043 20.1592 20.4325 20.4874C20.7607 20.8156 21.2058 21 21.6699 21C22.1341 21 22.5792 20.8156 22.9074 20.4874C23.2355 20.1592 23.4199 19.7141 23.4199 19.25V18.095C23.8143 17.977 24.1955 17.8187 24.5574 17.6225L25.3799 18.445C25.5426 18.609 25.7362 18.7392 25.9494 18.8281C26.1627 18.9169 26.3914 18.9626 26.6224 18.9626C26.8534 18.9626 27.0822 18.9169 27.2954 18.8281C27.5087 18.7392 27.7022 18.609 27.8649 18.445C28.0289 18.2823 28.1591 18.0888 28.248 17.8755C28.3368 17.6623 28.3826 17.4335 28.3826 17.2025C28.3826 16.9715 28.3368 16.7427 28.248 16.5295C28.1591 16.3162 28.0289 16.1227 27.8649 15.96L27.0424 15.1375C27.2386 14.7756 27.397 14.3944 27.5149 14H28.6699C29.1341 14 29.5792 13.8156 29.9074 13.4874C30.2355 13.1592 30.4199 12.7141 30.4199 12.25C30.4199 11.7859 30.2355 11.3408 29.9074 11.0126C29.5792 10.6844 29.1341 10.5 28.6699 10.5H27.5149C27.397 10.1056 27.2386 9.72441 27.0424 9.3625L27.8649 8.54C28.0281 8.37683 28.1575 8.18312 28.2458 7.96994C28.3341 7.75675 28.3796 7.52825 28.3796 7.2975C28.3796 7.06675 28.3341 6.83825 28.2458 6.62506C28.1575 6.41188 28.0281 6.21817 27.8649 6.055C27.7018 5.89183 27.508 5.7624 27.2949 5.6741C27.0817 5.58579 26.8532 5.54034 26.6224 5.54034C26.1564 5.54034 25.7095 5.72547 25.3799 6.055L24.5574 6.8775C24.1955 6.6813 23.8143 6.52296 23.4199 6.405V5.25C23.4199 4.78587 23.2355 4.34075 22.9074 4.01256C22.5792 3.68437 22.1341 3.5 21.6699 3.5C21.2058 3.5 20.7607 3.68437 20.4325 4.01256C20.1043 4.34075 19.9199 4.78587 19.9199 5.25V6.405C19.5255 6.52296 19.1443 6.6813 18.7824 6.8775L17.9599 6.055C17.7968 5.89183 17.603 5.7624 17.3899 5.6741C17.1767 5.58579 16.9482 5.54034 16.7174 5.54034C16.4867 5.54034 16.2582 5.58579 16.045 5.6741C15.8318 5.7624 15.6381 5.89183 15.4749 6.055C15.1454 6.38453 14.9603 6.83147 14.9603 7.2975C14.9603 7.76353 15.1454 8.21047 15.4749 8.54L16.2974 9.3625C16.1012 9.72441 15.9429 10.1056 15.8249 10.5H14.6699C14.2058 10.5 13.7607 10.6844 13.4325 11.0126C13.1043 11.3408 12.9199 11.7859 12.9199 12.25C12.9199 12.7141 13.1043 13.1592 13.4325 13.4874C13.7607 13.8156 14.2058 14 14.6699 14ZM21.6699 9.625C22.1891 9.625 22.6966 9.77895 23.1283 10.0674C23.56 10.3558 23.8964 10.7658 24.0951 11.2455C24.2938 11.7251 24.3458 12.2529 24.2445 12.7621C24.1432 13.2713 23.8932 13.739 23.5261 14.1062C23.159 14.4733 22.6912 14.7233 22.182 14.8246C21.6728 14.9258 21.145 14.8739 20.6654 14.6752C20.1857 14.4765 19.7758 14.1401 19.4873 13.7084C19.1989 13.2767 19.0449 12.7692 19.0449 12.25C19.0449 11.5538 19.3215 10.8861 19.8138 10.3938C20.306 9.90156 20.9737 9.625 21.6699 9.625Z"/>
</mask>
<path d="M38.2599 25.7425C37.7703 24.7979 36.9279 24.0844 35.9156 23.7568C34.9033 23.4292 33.8027 23.5139 32.8524 23.9925L26.9199 26.915C26.8659 25.7915 26.3813 24.7319 25.5666 23.9563C24.7519 23.1807 23.6698 22.7487 22.5449 22.75H14.6699C14.448 22.7467 14.2278 22.7884 14.0224 22.8725L5.27242 26.3725C4.94681 26.5022 4.66763 26.7266 4.47106 27.0168C4.27449 27.307 4.16958 27.6495 4.16992 28V36.75C4.16992 37.2141 4.3543 37.6592 4.68249 37.9874C5.01067 38.3156 5.45579 38.5 5.91992 38.5H23.4199C23.734 38.4999 24.0423 38.4153 24.3124 38.255L37.1574 30.66C37.2827 30.5925 37.3952 30.5036 37.4899 30.3975C38.0918 29.8013 38.4903 29.0305 38.6285 28.1947C38.7668 27.3588 38.6378 26.5007 38.2599 25.7425ZM35.1099 27.8075L22.9474 35H7.66992V29.19L15.0024 26.25H22.5449C22.777 26.25 22.9995 26.3422 23.1636 26.5063C23.3277 26.6704 23.4199 26.8929 23.4199 27.125C23.4199 27.3571 23.3277 27.5796 23.1636 27.7437C22.9995 27.9078 22.777 28 22.5449 28H18.1699C17.7058 28 17.2607 28.1844 16.9325 28.5126C16.6043 28.8407 16.4199 29.2859 16.4199 29.75C16.4199 30.2141 16.6043 30.6593 16.9325 30.9874C17.2607 31.3156 17.7058 31.5 18.1699 31.5H25.1699C25.4439 31.4984 25.7136 31.4324 25.9574 31.3075L34.4274 27.09C34.4879 27.0572 34.5545 27.037 34.6231 27.0307C34.6917 27.0244 34.7608 27.0322 34.8263 27.0534C34.8918 27.0747 34.9522 27.1091 35.004 27.1545C35.0558 27.1999 35.0978 27.2554 35.1274 27.3175C35.1632 27.3948 35.1802 27.4795 35.1772 27.5646C35.1741 27.6497 35.1511 27.7329 35.1099 27.8075ZM14.6699 14H15.8249C15.9429 14.3944 16.1012 14.7756 16.2974 15.1375L15.4749 15.96C15.3109 16.1227 15.1807 16.3162 15.0919 16.5295C15.003 16.7427 14.9573 16.9715 14.9573 17.2025C14.9573 17.4335 15.003 17.6623 15.0919 17.8755C15.1807 18.0888 15.3109 18.2823 15.4749 18.445C15.6376 18.609 15.8312 18.7392 16.0444 18.8281C16.2577 18.9169 16.4864 18.9626 16.7174 18.9626C16.9484 18.9626 17.1772 18.9169 17.3904 18.8281C17.6037 18.7392 17.7972 18.609 17.9599 18.445L18.7824 17.6225C19.1443 17.8187 19.5255 17.977 19.9199 18.095V19.25C19.9199 19.7141 20.1043 20.1592 20.4325 20.4874C20.7607 20.8156 21.2058 21 21.6699 21C22.1341 21 22.5792 20.8156 22.9074 20.4874C23.2355 20.1592 23.4199 19.7141 23.4199 19.25V18.095C23.8143 17.977 24.1955 17.8187 24.5574 17.6225L25.3799 18.445C25.5426 18.609 25.7362 18.7392 25.9494 18.8281C26.1627 18.9169 26.3914 18.9626 26.6224 18.9626C26.8534 18.9626 27.0822 18.9169 27.2954 18.8281C27.5087 18.7392 27.7022 18.609 27.8649 18.445C28.0289 18.2823 28.1591 18.0888 28.248 17.8755C28.3368 17.6623 28.3826 17.4335 28.3826 17.2025C28.3826 16.9715 28.3368 16.7427 28.248 16.5295C28.1591 16.3162 28.0289 16.1227 27.8649 15.96L27.0424 15.1375C27.2386 14.7756 27.397 14.3944 27.5149 14H28.6699C29.1341 14 29.5792 13.8156 29.9074 13.4874C30.2355 13.1592 30.4199 12.7141 30.4199 12.25C30.4199 11.7859 30.2355 11.3408 29.9074 11.0126C29.5792 10.6844 29.1341 10.5 28.6699 10.5H27.5149C27.397 10.1056 27.2386 9.72441 27.0424 9.3625L27.8649 8.54C28.0281 8.37683 28.1575 8.18312 28.2458 7.96994C28.3341 7.75675 28.3796 7.52825 28.3796 7.2975C28.3796 7.06675 28.3341 6.83825 28.2458 6.62506C28.1575 6.41188 28.0281 6.21817 27.8649 6.055C27.7018 5.89183 27.508 5.7624 27.2949 5.6741C27.0817 5.58579 26.8532 5.54034 26.6224 5.54034C26.1564 5.54034 25.7095 5.72547 25.3799 6.055L24.5574 6.8775C24.1955 6.6813 23.8143 6.52296 23.4199 6.405V5.25C23.4199 4.78587 23.2355 4.34075 22.9074 4.01256C22.5792 3.68437 22.1341 3.5 21.6699 3.5C21.2058 3.5 20.7607 3.68437 20.4325 4.01256C20.1043 4.34075 19.9199 4.78587 19.9199 5.25V6.405C19.5255 6.52296 19.1443 6.6813 18.7824 6.8775L17.9599 6.055C17.7968 5.89183 17.603 5.7624 17.3899 5.6741C17.1767 5.58579 16.9482 5.54034 16.7174 5.54034C16.4867 5.54034 16.2582 5.58579 16.045 5.6741C15.8318 5.7624 15.6381 5.89183 15.4749 6.055C15.1454 6.38453 14.9603 6.83147 14.9603 7.2975C14.9603 7.76353 15.1454 8.21047 15.4749 8.54L16.2974 9.3625C16.1012 9.72441 15.9429 10.1056 15.8249 10.5H14.6699C14.2058 10.5 13.7607 10.6844 13.4325 11.0126C13.1043 11.3408 12.9199 11.7859 12.9199 12.25C12.9199 12.7141 13.1043 13.1592 13.4325 13.4874C13.7607 13.8156 14.2058 14 14.6699 14ZM21.6699 9.625C22.1891 9.625 22.6966 9.77895 23.1283 10.0674C23.56 10.3558 23.8964 10.7658 24.0951 11.2455C24.2938 11.7251 24.3458 12.2529 24.2445 12.7621C24.1432 13.2713 23.8932 13.739 23.5261 14.1062C23.159 14.4733 22.6912 14.7233 22.182 14.8246C21.6728 14.9258 21.145 14.8739 20.6654 14.6752C20.1857 14.4765 19.7758 14.1401 19.4873 13.7084C19.1989 13.2767 19.0449 12.7692 19.0449 12.25C19.0449 11.5538 19.3215 10.8861 19.8138 10.3938C20.306 9.90156 20.9737 9.625 21.6699 9.625Z" fill="white" stroke="#8892B0" stroke-width="2" mask="url(#path-1-inside-1_2118_833)"/>
</svg>
