<svg xmlns="http://www.w3.org/2000/svg" width="73" height="65" fill="none" xmlns:v="https://vecta.io/nano"><g stroke="#231a50" stroke-width="1.2"><rect x="6.713" y="44.993" width="59.238" height="9.408" rx="4.432" fill="#e0cdff"/><path d="M11.248 14.626c0-2.448 1.984-4.432 4.432-4.432h41.304c2.448 0 4.432 1.984 4.432 4.432v30.449H11.248V14.626z" fill="#fff"/></g><g fill="#231a50"><rect x="31.332" y="48.831" width="10.002" height="1.3" rx=".65"/><rect x="18.824" y="17.354" width="13.616" height="1.3" rx=".65"/><rect x="18.824" y="22.918" width="13.616" height="1.3" rx=".65"/><rect x="18.824" y="28.482" width="8.404" height="1.3" rx=".65"/></g><circle cx="56.362" cy="15.261" r="9.79" fill="#cbacff"/><path fill-rule="evenodd" d="M65.151 15.261c0 .925-.143 1.817-.408 2.655h-4.149c.106-.842.163-1.73.163-2.648 0-.885-.053-1.742-.152-2.557h4.17c.244.807.376 1.663.376 2.55zm-5.553-2.55a20.16 20.16 0 0 1 .16 2.557 20.11 20.11 0 0 1-.172 2.648h-6.448a20.11 20.11 0 0 1-.172-2.648 20.16 20.16 0 0 1 .16-2.557h6.472zm.834-1.14h3.909a8.81 8.81 0 0 0-5.835-4.836c.864 1.076 1.548 2.781 1.926 4.836zm-6.215-4.836a8.81 8.81 0 0 0-5.836 4.836h3.91c.378-2.055 1.062-3.761 1.926-4.836zm-.908 4.836c.209-1.067.502-2.017.856-2.804.767-1.706 1.621-2.273 2.196-2.273s1.429.566 2.196 2.273c.354.787.648 1.736.856 2.804H53.31zm-1.191 1.14h-4.171a8.79 8.79 0 0 0-.376 2.55c0 .925.143 1.817.408 2.655h4.15a21.18 21.18 0 0 1-.163-2.648c0-.885.053-1.742.152-2.557zm.191 6.345h-3.878a8.81 8.81 0 0 0 5.773 4.728c-.845-1.06-1.516-2.724-1.895-4.728zm6.211 4.728a8.81 8.81 0 0 0 5.772-4.728h-3.877c-.379 2.004-1.05 3.667-1.895 4.728zm.876-4.728h-6.069c.207 1.03.495 1.948.838 2.712.767 1.706 1.621 2.273 2.196 2.273s1.429-.566 2.196-2.273c.344-.764.631-1.682.838-2.712zm6.755-3.795a9.79 9.79 0 0 1-19.579 0 9.79 9.79 0 0 1 9.79-9.79 9.79 9.79 0 0 1 9.79 9.79z" fill="#231a50"/></svg>