<svg width="33" height="33" viewBox="0 0 33 33" fill="none" xmlns="http://www.w3.org/2000/svg">
<g clip-path="url(#clip0_2118_896)">
<path d="M5.95686 19.3662H5.92806V19.434L0.892578 31.4417L23.0543 22.1476L10.1866 9.27975L5.95686 19.3662ZM13.608 24.721L11.048 25.7943V11.9511L13.608 14.5111V24.721ZM14.888 15.7911L17.448 18.3511V23.1108L14.888 24.1841V15.7911ZM9.76802 26.3313L7.20805 27.4046V19.6919L9.76802 13.587V26.3313ZM5.92806 22.7441V27.9415L3.2836 29.0506L5.92806 22.7441ZM18.7279 22.5738V19.6311L20.8015 21.7047L18.7279 22.5738ZM17.448 5.92615C16.0361 5.92615 14.888 7.07431 14.888 8.48615C14.888 9.89799 16.0361 11.0462 17.448 11.0462C18.8598 11.0462 20.0079 9.89799 20.0079 8.48615C20.0079 7.07431 18.8598 5.92615 17.448 5.92615ZM17.448 9.76615C16.742 9.76615 16.168 9.19207 16.168 8.48615C16.168 7.78023 16.742 7.20615 17.448 7.20615C18.1539 7.20615 18.7279 7.78023 18.7279 8.48615C18.7279 9.19207 18.1539 9.76615 17.448 9.76615ZM28.9679 0.806152C27.556 0.806152 26.4079 1.95431 26.4079 3.36615C26.4079 4.77799 27.556 5.92615 28.9679 5.92615C30.3797 5.92615 31.5278 4.77799 31.5278 3.36615C31.5278 1.95431 30.3797 0.806152 28.9679 0.806152ZM28.9679 4.64615C28.262 4.64615 27.6879 4.07207 27.6879 3.36615C27.6879 2.66023 28.262 2.08615 28.9679 2.08615C29.6738 2.08615 30.2479 2.66023 30.2479 3.36615C30.2479 4.07207 29.6738 4.64615 28.9679 4.64615ZM25.7679 11.0462C24.3561 11.0462 23.2079 12.1943 23.2079 13.6062C23.2079 15.018 24.3561 16.1662 25.7679 16.1662C27.1797 16.1662 28.3279 15.018 28.3279 13.6062C28.3279 12.1943 27.1797 11.0462 25.7679 11.0462ZM25.7679 14.8862C25.062 14.8862 24.4879 14.3121 24.4879 13.6062C24.4879 12.9002 25.062 12.3262 25.7679 12.3262C26.4738 12.3262 27.0479 12.9002 27.0479 13.6062C27.0479 14.3121 26.4738 14.8862 25.7679 14.8862ZM23.085 19.7975L23.99 20.7025C25.7666 18.9258 28.6587 18.9258 30.4354 20.7025L31.3403 19.7975C29.0639 17.521 25.3609 17.521 23.085 19.7975ZM12.1405 9.57863C12.9793 8.73782 13.4504 7.59863 13.4504 6.41095C13.4504 5.22327 12.9793 4.08409 12.1405 3.24327L11.2355 4.14823C11.8347 4.74884 12.1712 5.56258 12.1712 6.41095C12.1712 7.25932 11.8347 8.07306 11.2355 8.67367L12.1405 9.57863ZM23.0204 9.42375C25.3871 7.05639 25.3871 3.20551 23.0204 0.838152L22.1154 1.74311C23.9829 3.61127 23.9829 6.65063 22.1154 8.51879L23.0204 9.42375ZM18.088 12.9662H19.3679V14.2462H18.088V12.9662ZM28.3279 7.84615H29.6079V9.12615H28.3279V7.84615ZM15.528 2.08615H16.808V3.36615H15.528V2.08615Z" fill="white"/>
</g>
<defs>
<clipPath id="clip0_2118_896">
<rect width="31.9997" height="32" fill="white" transform="translate(0.166992 0.166504)"/>
</clipPath>
</defs>
</svg>
