<svg xmlns="http://www.w3.org/2000/svg" width="37" height="30" fill="none" xmlns:v="https://vecta.io/nano"><mask id="A" maskUnits="userSpaceOnUse" x="0" y="0" width="37" height="30" fill="#000"><path fill="#fff" d="M0 0h37v30H0z"/><path d="M2 3.423C2 2.637 2.637 2 3.423 2h30.077c.786 0 1.423.637 1.423 1.423v22.761c0 .786-.637 1.422-1.423 1.422H3.423c-.786 0-1.423-.637-1.423-1.422V3.423z"/></mask><path d="M4 3.423A.58.58 0 0 1 3.423 4V0C1.532 0 0 1.532 0 3.423h4zM3.423 4h30.077V0H3.423v4zm30.077 0a.58.58 0 0 1-.577-.577h4C36.922 1.532 35.39 0 33.499 0v4zm-.577-.577v22.761h4V3.423h-4zm0 22.761a.58.58 0 0 1 .577-.578v4c1.89 0 3.423-1.532 3.423-3.422h-4zm.577-.578H3.423v4h30.077v-4zm-30.077 0a.58.58 0 0 1 .577.578H0c0 1.89 1.532 3.422 3.423 3.422v-4zm.577.578V3.423H0v22.761h4z" fill="#fff" mask="url(#A)"/><g clip-path="url(#B)"><rect x="2" y="2" width="32.922" height="25.606" rx="1.423" fill="#E8F4FF"/><g stroke="#231a50"><path d="M54.838 42.754l-35.6-22.872 2.659-1.978c4.805-3.469 12.405-3.468 17.209.002l.011.008.011.007 31.368 20.267v4.566H54.838z" fill="#cbacff"/><path d="M15.073 14.343l.006.005.006.005 41.607 31.246h-84.066v-2.798C-14.327 28.018-4.093 17.354-.342 14.343c4.313-3.462 11.101-3.462 15.415 0z" fill="#CDDEFF"/></g><g fill="#231a50"><circle cx="5.201" cy="5.201" r=".914"/><circle cx="8.402" cy="5.201" r=".914"/><circle cx="11.602" cy="5.201" r=".914"/><circle cx="31.721" cy="5.201" r=".914"/></g></g><rect x="2.5" y="2.5" width="31.922" height="24.606" rx=".923" stroke="#231a50"/><defs><clipPath id="B"><rect x="2" y="2" width="32.922" height="25.606" rx="1.423" fill="#fff"/></clipPath></defs></svg>