<svg width="108" height="108" viewBox="0 0 108 108" fill="none" xmlns="http://www.w3.org/2000/svg">
<g clip-path="url(#clip0_2116_437)">
<path d="M65.8061 55.7528C67.7283 56.5244 71.8421 58.4777 75.2599 62.8432C79.016 67.6407 79.7845 72.6094 79.9869 74.6605C80.7946 73.2949 85.9671 64.2033 82.3503 53.3893C79.3522 44.4248 72.2942 40.1972 70.533 39.2085C68.9573 44.7232 67.3818 50.238 65.8061 55.7528ZM42.1714 55.7528C40.2492 56.5244 36.1354 58.4778 32.7175 62.8432C28.9614 67.6407 28.193 72.6094 27.9906 74.6605C27.1829 73.2949 22.0104 64.2033 25.6271 53.3893C28.6253 44.4248 35.6833 40.1972 37.4445 39.2085C39.0202 44.7232 40.5957 50.238 42.1714 55.7528Z" fill="#C26400"/>
<path d="M62.3334 12.9827C63.2207 13.9034 64.1162 14.9497 65.0035 16.0714C65.1458 16.2471 65.2797 16.4313 65.4137 16.6154C68.7701 21.0935 71.8504 27.0196 72.8967 34.4776C74.9808 49.4184 67.5229 60.4086 65.807 62.8443L42.1695 62.8443C40.4536 60.4086 32.9957 49.4184 35.0798 34.4775C36.0927 27.2707 38.9972 21.5036 42.2113 17.0841C42.4708 16.741 42.7219 16.4062 42.973 16.0713C43.7263 15.1171 44.4797 14.2299 45.233 13.4263C49.2339 9.0738 53.0508 6.69668 53.9883 6.12746C54.8922 6.67993 58.4831 8.9148 62.3334 12.9827Z" fill="#F77F00"/>
<path d="M60.2653 43.5258C63.9635 39.8276 63.9635 33.8316 60.2653 30.1334C56.5671 26.4352 50.5712 26.4352 46.873 30.1334C43.1747 33.8316 43.1747 39.8276 46.873 43.5258C50.5712 47.224 56.5671 47.224 60.2653 43.5258Z" fill="#F77F00"/>
<path d="M56.9183 40.1777C58.7674 38.3286 58.7674 35.3306 56.9183 33.4815C55.0692 31.6324 52.0712 31.6324 50.2221 33.4815C48.373 35.3306 48.373 38.3286 50.2221 40.1777C52.0712 42.0268 55.0692 42.0268 56.9183 40.1777Z" fill="#C26400"/>
<path d="M62.9341 83.5126C62.9341 87.7298 60.891 92.2212 60.1494 93.526C59.8694 94.0185 59.6177 94.4148 59.4426 94.6813C58.521 92.6037 57.5994 90.5262 56.6778 88.4486C56.8839 89.8709 57.0465 92.2486 56.348 95.0547C55.612 98.0114 54.2509 100.115 53.367 101.28C52.0891 100.299 50.32 98.7293 48.5834 96.4965C46.1917 93.4214 43.7999 88.9795 43.7999 83.5126C43.7999 78.2288 48.0832 73.9454 53.367 73.9455C58.6508 73.9454 62.9341 78.2288 62.9341 83.5126Z" fill="#F77F00"/>
<path d="M57.4675 79.4129C57.4675 76.3939 55.6317 73.9464 53.367 73.9464C51.1024 73.9464 49.2666 76.3939 49.2666 79.4129C49.2666 82.432 51.1024 84.8794 53.367 84.8794C55.6317 84.8794 57.4675 82.432 57.4675 79.4129Z" fill="#C26400"/>
<path d="M50.0186 45.1992H57.1209V50.2214C57.1209 52.1813 55.5297 53.7726 53.5697 53.7726C51.6098 53.7726 50.0186 52.1813 50.0186 50.2214V45.1992Z" fill="#F77F00"/>
<path d="M62.3328 12.9829C63.2201 13.9036 64.1156 14.9499 65.0029 16.0715C65.1452 16.2472 65.2791 16.4314 65.4131 16.6155L65.2875 16.7411C58.9428 23.0858 48.6977 23.203 42.2107 17.0843C42.4702 16.7411 42.7213 16.4063 42.9724 16.0714C43.7257 15.1172 44.4791 14.23 45.2324 13.4265C49.2333 9.07392 53.0502 6.6968 53.9877 6.12758C54.8916 6.68005 58.4825 8.91493 62.3328 12.9829Z" fill="#C26400"/>
<path d="M62.3339 12.9823C62.2084 13.1245 62.0744 13.2585 61.9405 13.3924C57.3285 18.0044 49.8539 18.0127 45.2335 13.4259C49.2344 9.07332 53.0513 6.69619 53.9888 6.12697C54.8927 6.67944 58.4836 8.91432 62.3339 12.9823Z" fill="#C26400"/>
<path d="M46.0368 44.3625C50.1909 48.5166 56.9492 48.5166 61.1032 44.3625C65.2573 40.2084 65.2573 33.4501 61.1033 29.2961C50.7003 19.7169 36.4563 33.9551 46.0368 44.3625ZM47.7108 42.6885C44.4805 39.4581 44.4805 34.2005 47.7109 30.9701C50.9412 27.7397 56.1988 27.7397 59.4291 30.97C66.8954 39.024 55.7681 50.1556 47.7108 42.6885ZM42.616 83.5122C42.3066 90.2137 47.3513 98.4259 52.6474 102.219C53.0993 102.581 53.8035 102.531 54.2043 102.117C56.0871 99.732 57.2968 96.88 57.796 93.8892C57.796 93.8892 58.3609 95.1619 58.3608 95.1619C58.7039 96.0037 59.9587 96.105 60.433 95.3311C74.4314 73.4113 44.8171 63.6494 42.616 83.5122ZM61.7506 83.5131C61.7498 86.7541 60.4191 90.2591 59.5722 92.0541L57.76 87.9679C57.224 86.7285 55.2962 87.2847 55.5064 88.6178C56.0686 92.4061 55.2037 96.3419 53.1253 99.5604C48.1396 95.5355 41.1495 84.3142 47.4411 77.5868C52.5678 72.3403 61.8017 76.0923 61.7506 83.5131Z" fill="white"/>
<path d="M57.6203 7.18668C56.3696 6.21198 55.288 5.46875 54.6055 5.11824C54.2278 4.88609 53.7521 4.88609 53.3738 5.11595C52.5284 5.50376 50.4848 7.02304 49.0724 8.21969C39.2329 15.7688 33.0061 28.9309 33.6219 40.3473C20.9978 49.9159 21.3531 66.0913 26.9731 75.269C27.5113 76.2385 29.0966 75.8884 29.1696 74.7778C29.419 69.9408 32.7804 62.8143 38.4161 59.0618C39.265 60.6674 40.1992 62.1655 41.2025 63.5261C41.4631 63.912 41.9267 64.065 42.3771 64.028L42.3771 67.5665C42.3771 69.525 43.9694 71.1174 45.9279 71.1174H61.8608C63.8184 71.1174 65.4116 69.5242 65.4116 67.5665V64.028C65.842 64.0502 66.3374 64.0202 66.6434 63.6814C67.6995 62.2863 68.6822 60.7385 69.5686 59.0671C75.2001 62.8215 78.5528 69.9293 78.8073 74.7776C78.8685 75.7507 80.1648 76.2033 80.823 75.5003C86.683 66.4708 87.0254 49.8995 74.3466 40.3395C74.963 28.1861 68.2233 14.8464 57.6203 7.18668ZM51.1182 9.59268C52.0353 8.87975 52.9836 8.18485 53.9875 7.52469C57.5644 9.8839 61.2483 13.1854 63.8266 16.4941C58.2201 21.4991 49.6136 21.6699 43.8157 16.92C45.5617 14.4974 48.6627 11.5818 51.1182 9.59268ZM27.4635 70.8713C23.5133 61.6409 25.7675 50.1523 33.7789 43.2413C34.2214 48.1614 35.5149 52.8305 37.3699 56.9205C32.5646 60.0291 28.5323 65.9467 27.4635 70.8713ZM80.5132 70.8713C79.4461 65.9529 75.4171 60.0327 70.6143 56.9244C72.4665 52.8419 73.7548 48.1659 74.1929 43.238C82.1914 50.1368 84.4731 61.6122 80.5132 70.8713ZM68.1198 56.6549C67.2627 58.3599 66.3076 60.0674 65.1852 61.6608C65.0038 61.6596 43.1707 61.6594 42.7915 61.6608C34.0741 49.0786 33.439 32.0552 42.4154 18.8153C49.1387 24.2885 58.7451 24.0971 65.2561 18.3722C73.3616 30.0054 73.9869 44.658 68.1198 56.6549Z" fill="white"/>
</g>
<defs>
<clipPath id="clip0_2116_437">
<rect width="75.7588" height="75.7588" fill="white" transform="matrix(0.707106 -0.707107 0.707106 0.707107 0 53.5698)"/>
</clipPath>
</defs>
</svg>
