<svg width="60" height="60" viewBox="0 0 60 60" fill="none" xmlns="http://www.w3.org/2000/svg">
<rect width="60" height="60" rx="8" fill="#E5EFFF" fill-opacity="0.5"/>
<path d="M20.5298 29.45L27.4702 18.4329H31.7322V42H27.2007V27.0242L21.8269 35.666H19.2158L13.8252 27.041V42H9.31055V18.4329H13.6399L20.5298 29.45ZM51.627 34.251C51.627 34.8462 51.5764 35.4077 51.4753 35.9355H39.6833C39.8518 36.5532 40.155 37.0811 40.593 37.519C41.0422 37.957 41.5701 38.2883 42.1765 38.5129C42.7942 38.7263 43.4399 38.833 44.1138 38.833C44.7427 38.833 45.3884 38.7432 46.051 38.5635C46.7249 38.3726 47.3201 38.1367 47.8367 37.856L49.6729 40.9387C48.853 41.4329 47.9714 41.7979 47.0281 42.0337C46.0847 42.2808 45.0571 42.4043 43.9453 42.4043C42.2383 42.4043 40.6997 42.0674 39.3296 41.3936C37.9707 40.7197 36.8982 39.7651 36.1121 38.5298C35.3372 37.2944 34.9497 35.8682 34.9497 34.251C34.9497 32.7461 35.3147 31.376 36.0447 30.1406C36.7859 28.894 37.7966 27.9114 39.0769 27.1926C40.3684 26.4739 41.8059 26.1145 43.3894 26.1145C44.9392 26.1145 46.3374 26.4739 47.584 27.1926C48.8418 27.9001 49.8301 28.8772 50.5488 30.1238C51.2676 31.3591 51.627 32.7349 51.627 34.251ZM43.3894 29.4668C42.7043 29.4668 42.0979 29.6072 41.5701 29.8879C41.0422 30.1575 40.6099 30.5393 40.2729 31.0334C39.9473 31.5164 39.7283 32.0723 39.616 32.7012H47.1965C47.073 32.0723 46.8372 31.5164 46.489 31.0334C46.1409 30.5393 45.6973 30.1575 45.1582 29.8879C44.6304 29.6072 44.0408 29.4668 43.3894 29.4668Z" fill="#231A50"/>
<rect x="1" y="1" width="58" height="58" rx="7" stroke="#B2D1FF" stroke-opacity="0.2" stroke-width="2"/>
</svg>
