<svg xmlns="http://www.w3.org/2000/svg" width="73" height="65" fill="none" xmlns:v="https://vecta.io/nano"><g clip-path="url(#A)"><g stroke="#231a50" stroke-width="1.036"><path d="M11.534 25.099c.55-1.379 1.884-2.283 3.369-2.283h41.591c1.438 0 2.74.85 3.319 2.166l10.907 24.774a3.63 3.63 0 0 1-3.319 5.089H5.022a3.63 3.63 0 0 1-3.369-4.971l9.881-24.774z" fill="#fff"/><path d="M12.444 37.955l23.991-3.12-4.507 12.374c-6.702-.297-21.264-3.974-19.485-9.253z" fill="#cbacff"/><path d="M45.838 36.142c0 .342-.179.726-.63 1.134s-1.133.8-2.02 1.14c-1.77.678-4.25 1.108-7.016 1.108s-5.246-.43-7.016-1.108c-.887-.34-1.569-.731-2.02-1.14s-.63-.793-.63-1.134.179-.725.63-1.134 1.133-.8 2.02-1.14c1.77-.678 4.25-1.108 7.016-1.108s5.246.43 7.016 1.108c.887.34 1.569.731 2.02 1.14s.63.793.63 1.134z" fill="#fff"/><path d="M53.026 36.864c0 .612-.357 1.271-1.175 1.941s-2.024 1.29-3.564 1.823c-3.076 1.065-7.359 1.733-12.114 1.733s-9.038-.668-12.114-1.733c-1.54-.533-2.75-1.157-3.564-1.823s-1.175-1.328-1.175-1.941.357-1.271 1.175-1.941 2.024-1.29 3.564-1.823c3.076-1.065 7.359-1.733 12.114-1.733s9.038.668 12.114 1.733c1.54.534 2.75 1.157 3.564 1.823s1.175 1.328 1.175 1.941z"/><path d="M60.155 38.52c0 1.098-.579 2.204-1.755 3.268s-2.906 2.047-5.088 2.883c-4.361 1.67-10.42 2.714-17.139 2.714s-12.779-1.044-17.139-2.714c-2.182-.836-3.913-1.818-5.088-2.883s-1.755-2.17-1.755-3.268.579-2.204 1.755-3.269 2.906-2.047 5.088-2.883c4.361-1.67 10.42-2.714 17.139-2.714s12.778 1.044 17.139 2.714c2.182.836 3.913 1.818 5.088 2.883s1.755 2.17 1.755 3.269z"/></g><path d="M41.391 20.158a5.22 5.22 0 0 1-5.219 5.219 5.22 5.22 0 0 1-5.219-5.219 5.22 5.22 0 0 1 5.219-5.219 5.22 5.22 0 0 1 5.219 5.219z" fill="#e0cdff"/><path d="M36.212 24.733h0a4.62 4.62 0 0 1-3.195-1.453m3.195 1.453L31.767 20c-.031 1.215.418 2.394 1.25 3.28m3.195 1.453h.01a4.68 4.68 0 0 0 3.34-1.305m-3.35 1.305l-3.846-4.718m.65 3.265l.437-.411m-.437.411l.437-.411m0 0c-.724-.771-1.115-1.796-1.088-2.854m1.088 2.854a4.02 4.02 0 0 0 2.78 1.265 4.08 4.08 0 0 0 2.912-1.138m-6.78-2.981c.027-1.057.47-2.062 1.233-2.794a4.02 4.02 0 0 1 5.65.082m-6.883 2.712l6.883-2.712m-.103 5.692l.415.433m-.415-.433c.781-.75 1.232-1.78 1.254-2.863m-1.254 2.863l1.254-2.863m-.839 3.296c.896-.861 1.414-2.042 1.439-3.284h0v-.01a4.62 4.62 0 0 0-1.323-3.251c-.852-.867-2.012-1.364-3.227-1.381a4.62 4.62 0 0 0-3.266 1.287h0c-.877.842-1.386 1.996-1.417 3.212l7.795 3.429zm.839-3.296a4.02 4.02 0 0 0-1.151-2.829m1.151 2.829l-1.151-2.829m-4.227-7.392l.009-.001.009-.001a10.5 10.5 0 0 1 8.142 2.475c2.241 1.936 3.561 4.729 3.633 7.69a9.76 9.76 0 0 1-1.551 5.299l-.005.008-.005.008-.591.985a45.88 45.88 0 0 1-5.477 7.281l-2.404 2.601-.039.043-.031.05a.62.62 0 0 1-1.053 0l-.03-.049-.039-.042-2.404-2.618-.002-.002c-2.065-2.224-3.9-4.652-5.475-7.246l-.74-1.233h0l-.002-.003c-1.243-2.042-1.701-4.467-1.289-6.822a10.53 10.53 0 0 1 9.346-8.421z" fill="#fff" stroke="#231a50" stroke-width="1.2"/></g><defs><clipPath id="A"><path fill="#fff" transform="translate(.332 .297)" d="M0 0h72v64H0z"/></clipPath></defs></svg>