<svg xmlns="http://www.w3.org/2000/svg" xmlns:xlink="http://www.w3.org/1999/xlink" width="32" height="32" fill="none" xmlns:v="https://vecta.io/nano"><mask id="A" maskUnits="userSpaceOnUse" x="2" y="0" width="28" height="32" fill="#000"><path fill="#fff" d="M2 0h28v32H2z"/><path fill-rule="evenodd" d="M11.626 6.766h8.749C20.171 4.579 18.29 2.866 16 2.866s-4.171 1.713-4.374 3.899zm9.638 0h3.406c.664 0 1.22.493 1.284 1.139l2.04 20.714c.073.74-.523 1.381-1.284 1.381H5.29c-.761 0-1.357-.641-1.284-1.381l2.04-20.714c.064-.646.619-1.139 1.284-1.139h3.406C10.942 4.1 13.22 2 16 2s5.058 2.1 5.264 4.766z"/></mask><path fill-rule="evenodd" d="M11.626 6.766h8.749C20.171 4.579 18.29 2.866 16 2.866s-4.171 1.713-4.374 3.899zm9.638 0h3.406c.664 0 1.22.493 1.284 1.139l2.04 20.714c.073.74-.523 1.381-1.284 1.381H5.29c-.761 0-1.357-.641-1.284-1.381l2.04-20.714c.064-.646.619-1.139 1.284-1.139h3.406C10.942 4.1 13.22 2 16 2s5.058 2.1 5.264 4.766z" fill="#231a50"/><path d="M20.374 6.766v1.787h1.961L22.154 6.6l-1.779.165zm-8.749 0L9.846 6.6l-.181 1.953h1.961V6.766zm9.638 0l-1.782.137.127 1.65h1.655V6.766zm4.69 1.139l1.779-.175h0l-1.779.175zm2.04 20.714l1.779-.175h0l-1.779.175zm-23.988 0l-1.779-.175h0l1.779.175zm2.04-20.714l1.779.175-1.779-.175zm4.69-1.139v1.787h1.655l.127-1.65-1.782-.137zm9.638-1.787h-8.749v3.574h8.749V4.978zM22.154 6.6C21.863 3.47 19.188 1.079 16 1.079v3.574c1.393 0 2.479 1.035 2.595 2.277l3.559-.331zM16 1.079c-3.188 0-5.863 2.391-6.154 5.521l3.559.331c.115-1.242 1.202-2.277 2.595-2.277V1.079zm8.67 3.899h-3.406v3.574h3.406V4.978zm3.062 2.751c-.157-1.594-1.512-2.751-3.062-2.751v3.574a.51.51 0 0 1-.495-.473l3.557-.35zm2.04 20.714L27.732 7.73l-3.557.35 2.04 20.714 3.557-.35zm-3.062 3.343c1.772 0 3.243-1.508 3.062-3.343l-3.557.35c-.035-.355.245-.581.495-.581v3.574zm-21.421 0H26.71v-3.574H5.29v3.574zm-3.062-3.343c-.181 1.836 1.29 3.343 3.062 3.343v-3.574c.25 0 .53.226.495.581l-3.557-.35zM4.268 7.73l-2.04 20.714 3.557.35L7.825 8.08l-3.557-.35zM7.33 4.978c-1.55 0-2.905 1.158-3.062 2.751l3.557.35a.51.51 0 0 1-.495.473V4.978zm3.406 0H7.33v3.574h3.406V4.978zm1.782 1.925C12.65 5.196 14.126 3.787 16 3.787V.213c-3.686 0-6.766 2.792-7.046 6.415l3.564.275zM16 3.787c1.874 0 3.35 1.409 3.482 3.116l3.564-.275C22.766 3.005 19.687.213 16 .213v3.574z" fill="#fff" mask="url(#A)"/><g stroke="#231a50"><path d="M6.642 8.462a1.31 1.31 0 0 1 1.304-1.184h16.107a1.31 1.31 0 0 1 1.305 1.184l1.903 19.66a1.31 1.31 0 0 1-1.305 1.437H6.044a1.31 1.31 0 0 1-1.304-1.437l1.903-19.66z" fill="#e0cdff"/><path d="M20.8 10.208V7.386a4.8 4.8 0 0 0-4.8-4.8h0a4.8 4.8 0 0 0-4.8 4.8v2.822"/></g><g fill="#231a50"><ellipse cx="11.2" cy="11.088" rx="1.2" ry="1.466"/><ellipse cx="20.8" cy="11.088" rx="1.2" ry="1.466"/></g><path d="M20.8 20.763c0 2.591-2.149 4.691-4.8 4.691s-4.8-2.1-4.8-4.691" stroke="#231a50" stroke-linecap="round"/><g fill-rule="evenodd" fill="#231a50"><use xlink:href="#C"/><use xlink:href="#C" x="5.4"/></g><defs ><path id="C" d="M12.842 19.23l.306.298a.22.22 0 0 0 .306 0l.305-.295 1.277-1.187c.486-.47.486-1.232 0-1.702-.477-.461-1.248-.284-1.736.16-.488-.445-1.259-.625-1.736-.163-.486.47-.486 1.232 0 1.702l1.277 1.187z"/></defs></svg>