<svg width="40" height="40" viewBox="0 0 40 40" fill="none" xmlns="http://www.w3.org/2000/svg">
<g clip-path="url(#clip0_2118_825)">
<path d="M13.3333 38.3332C15.1743 38.3332 16.6667 36.8408 16.6667 34.9998C16.6667 33.1589 15.1743 31.6665 13.3333 31.6665C11.4924 31.6665 10 33.1589 10 34.9998C10 36.8408 11.4924 38.3332 13.3333 38.3332Z" stroke="white" stroke-width="2" stroke-linecap="round" stroke-linejoin="round"/>
<path d="M33.3333 38.3332C35.1743 38.3332 36.6667 36.8408 36.6667 34.9998C36.6667 33.1589 35.1743 31.6665 33.3333 31.6665C31.4924 31.6665 30 33.1589 30 34.9998C30 36.8408 31.4924 38.3332 33.3333 38.3332Z" stroke="white" stroke-width="2" stroke-linecap="round" stroke-linejoin="round"/>
<path d="M9.44935 9.99984H38.3327L35.5327 23.9832C35.3803 24.7505 34.9628 25.4398 34.3534 25.9303C33.744 26.4209 32.9815 26.6815 32.1993 26.6665H14.5827C13.7688 26.6734 12.9806 26.3823 12.3665 25.8481C11.7525 25.3139 11.3551 24.5735 11.2493 23.7665L8.71602 4.5665C8.61096 3.76523 8.21839 3.02941 7.61135 2.49595C7.00431 1.96249 6.22415 1.66773 5.41602 1.6665L1.66602 1.6665" stroke="white" stroke-width="2" stroke-linecap="round" stroke-linejoin="round"/>
</g>
<defs>
<clipPath id="clip0_2118_825">
<rect width="40" height="40" fill="white"/>
</clipPath>
</defs>
</svg>
