<svg width="33" height="33" viewBox="0 0 33 33" fill="none" xmlns="http://www.w3.org/2000/svg">
<path d="M3.69436 25.9973L3.69371 25.997C2.55088 25.5218 1.99322 24.1947 2.45715 23.0375C2.45741 23.0368 2.45767 23.0362 2.45794 23.0355L4.92677 17.0819V26.5123L3.69436 25.9973ZM29.1704 21.5861L29.1706 21.5866C29.6444 22.7261 29.0922 24.053 27.9343 24.5298L27.9334 24.5302L18.1226 28.5958C17.8372 28.7097 17.5426 28.766 17.2493 28.7663C16.3602 28.754 15.5254 28.2294 15.1771 27.3753L15.1762 27.3732L8.56294 11.4132L8.56295 11.4132L8.5618 11.4105C8.43726 11.1161 8.38204 10.8143 8.39316 10.5145L8.39328 10.5101C8.41603 9.63398 8.93913 8.81946 9.7862 8.46934L9.78636 8.46927L19.6129 4.40262L19.6158 4.40139C19.9008 4.28084 20.2036 4.23355 20.5081 4.23301C21.3846 4.25774 22.2084 4.78248 22.557 5.6258L22.5571 5.62613L29.1704 21.5861ZM16.9039 26.6529L17.0571 27.0225L17.4266 26.8691L27.2266 22.8025L27.5958 22.6493L27.4428 22.2799L20.8429 6.3466L20.7406 6.09968H20.4733H20.46H20.3805L20.3071 6.13005L10.5072 10.1834L10.1372 10.3364L10.2906 10.7062L16.9039 26.6529Z" fill="white" stroke="#6A6586" stroke-width="0.799997"/>
<path d="M15.7676 12.1663C15.7676 12.6818 15.3498 13.0997 14.8343 13.0997C14.3188 13.0997 13.901 12.6818 13.901 12.1663C13.901 11.6509 14.3188 11.233 14.8343 11.233C15.3498 11.233 15.7676 11.6509 15.7676 12.1663Z" fill="white" stroke="#555A7F" stroke-width="0.799997"/>
<path d="M10.6735 28.7664C9.42774 28.7664 8.40683 27.7455 8.40683 26.4997V20.0598L12.0085 28.7664H10.6735Z" fill="white" stroke="#555A7F" stroke-width="0.799997"/>
</svg>
