<svg width="21" height="21" viewBox="0 0 21 21" fill="none" xmlns="http://www.w3.org/2000/svg">
<path d="M12.7906 20.293L20.2632 12.8204C21.0136 12.07 21.0136 10.8534 20.2632 10.1031L14.4889 4.32876L11.4852 1.32506C11.1249 0.964723 10.6361 0.762283 10.1265 0.762283H4.58535C4.07575 0.762283 3.58703 0.964723 3.22669 1.32506L2.26097 2.29077L1.29526 3.25649C0.934923 3.61683 0.732483 4.10555 0.732483 4.61515V10.1563C0.732483 10.6659 0.934923 11.1547 1.29526 11.515L4.29896 14.5187L10.0733 20.293C10.8236 21.0434 12.0402 21.0434 12.7906 20.293Z" fill="url(#paint0_linear_10_184)"/>
<defs>
<linearGradient id="paint0_linear_10_184" x1="2.26097" y1="2.29077" x2="21.3017" y2="24.3686" gradientUnits="userSpaceOnUse">
<stop stop-color="white"/>
<stop offset="1" stop-color="#CBACFF"/>
</linearGradient>
</defs>
</svg>
